<svg xmlns="http://www.w3.org/2000/svg" viewBox="0 0 80.805 80">
  <defs>
    <style>
      .cls-1 {
        fill: #063;
      }

      .cls-1, .cls-2, .cls-3, .cls-4, .cls-5 {
        fill-rule: evenodd;
      }

      .cls-2 {
        fill: #fff;
      }

      .cls-3 {
        fill: #fc0;
      }

      .cls-4 {
        fill: #ff0;
      }

      .cls-5 {
        fill: #093;
      }
    </style>
  </defs>
  <g id="logo_kejari_color" transform="translate(-525 -81)">
    <path id="Path_68" data-name="Path 68" class="cls-1" d="M4.155,493.2c.291.738,2.582,4.884,3.04,5.578a18.2,18.2,0,0,0,3.387,4.013c.738.626,2.157,1.285,2.683.693a4.264,4.264,0,0,0,.883-1.554,40.469,40.469,0,0,0,52,0,4.438,4.438,0,0,0,.883,1.554c.525.592,1.945-.067,2.683-.693a17.949,17.949,0,0,0,3.387-4.013c.458-.693,2.75-4.84,3.04-5.578a1.667,1.667,0,0,0,.391.436c.626.984,2.18.156,3.074-.917s1.341-3.308.078-3.8c-2.224-.861-4.683-1.777-6.919-2.627-1.833-.693-2.861.782-3.431,2.023l-.425.939a31.837,31.837,0,0,1-1.978,3.633c-1.252-.827-2.537-.38-3.61.671l-.659.648a32.368,32.368,0,0,1-45.045,0l-.659-.648c-1.062-1.062-2.358-1.509-3.61-.671a33.678,33.678,0,0,1-1.978-3.633l-.425-.939c-.57-1.241-1.6-2.716-3.431-2.023-2.235.838-4.695,1.766-6.919,2.627-1.263.481-.816,2.716.078,3.8s2.448,1.9,3.074.917a1.473,1.473,0,0,0,.414-.436Z" transform="translate(525.292 -350.383)"/>
    <g id="Group_42" data-name="Group 42" transform="translate(525 81)">
      <g id="Group_44" data-name="Group 44" transform="translate(0 0)">
        <g id="Group_43" data-name="Group 43" transform="translate(0)">
          <path id="Path_43" data-name="Path 43" class="cls-1" d="M244.609,227.214a1.936,1.936,0,0,0,1.383-1.821v-.371l-.225-.011a1.55,1.55,0,0,1-1.675,1.371,1.479,1.479,0,0,1-1.6-1.405v-.1l-5.126-.2a3.144,3.144,0,0,0-.854-.573v.27a1.332,1.332,0,0,1,.562.956c-.034.663-.686,1.124-1.607,1.371h-3.462c-.933-.247-1.574-.708-1.607-1.371a1.28,1.28,0,0,1,.562-.956v-.27a3.144,3.144,0,0,0-.854.573l-5.137.2v.1a1.472,1.472,0,0,1-1.6,1.405,1.558,1.558,0,0,1-1.675-1.371l-.225.011c-.011.124,0,.247,0,.371a1.957,1.957,0,0,0,1.383,1.821L217.8,238.184v.146c0,2.124,2.507,3.867,5.587,3.867s5.587-1.742,5.587-3.867v-.146l-5.058-10.971a1.97,1.97,0,0,0,1.473-1.461l4.328.079c.034.764.967,1.439,2.3,1.765h3.462c1.338-.326,2.271-1,2.3-1.765l4.328-.079a1.97,1.97,0,0,0,1.473,1.461l-5.058,10.971v.146c0,2.124,2.507,3.867,5.587,3.867s5.587-1.742,5.587-3.867v-.146Zm-16.13,10.971H218.261l5.025-10.892h.18Zm10.487,0,5.025-10.9h.18l5.024,10.892H238.966Z" transform="translate(-193.318 -198.91)"/>
          <path id="Path_44" data-name="Path 44" class="cls-2" d="M356.388,207.9h-.865V193.286c0-3.777.281-7.52.416-11.286.146,3.766.416,7.509.416,11.286V207.9Z" transform="translate(-315.539 -161.542)"/>
          <path id="Path_45" data-name="Path 45" class="cls-1" d="M79.431,189.641c.371-.54-.517-1.461-1.641-2.192-1.248-.809-2.72-1.844-2.934-2.394a1.2,1.2,0,0,1,.067-1.012c1.922-2.2,4.62,2.642,9.959,6.475,5.261,3.788,13.028,6.475,22.639,6.5a36.483,36.483,0,0,0,18.738-5.328,23.709,23.709,0,0,0,5.89-5.261l.2-.191-.022-.056a7.09,7.09,0,0,0,.877-1.641l.607.281.562-.539-.967-.438c.27-1.45-.382-2.776-2.686-3.642a3.053,3.053,0,0,1,1.686-.753,2.348,2.348,0,0,1,1.461.562l4.519,3.721a1.206,1.206,0,0,1,.315,1.326c-.214.551-1.675,1.585-2.934,2.394-1.135.731-2.023,1.664-1.641,2.192s2.169-.472,2.642-.866c-.461.573-2.214,1.922-2.911,1.1-.54-.641.18-1.619,1.967-2.8,1.5-.989,3.136-2.091,2.507-2.6s-2.136.416-3.192,1.473a40.191,40.191,0,0,1-56.709-.011c-1.068-1.057-2.563-1.978-3.192-1.473s1,1.619,2.507,2.6c1.8,1.18,2.507,2.158,1.967,2.8-.7.832-2.462-.517-2.911-1.1.472.4,2.259,1.416,2.63.877Zm37.656-55.169a1.267,1.267,0,0,1,.169-1.472,1.1,1.1,0,0,0-.731.641,1.189,1.189,0,0,0,.281,1.18,2.334,2.334,0,0,0-1.371.821,2.376,2.376,0,0,0,.495,1.529,1.193,1.193,0,0,0-.989.7,1.146,1.146,0,0,0,.124.967,1.25,1.25,0,0,1,.843-1.214l.562-.169a2.952,2.952,0,0,1-.731-1.641,3.341,3.341,0,0,1,1.7-.877l-.348-.461Zm6.407,40.59a3.572,3.572,0,0,0-2.349-.573,1.874,1.874,0,0,0-.214-1.832,1.753,1.753,0,0,0-1.349-.607,2.032,2.032,0,0,1,.989,2.068l-.056.865a4.012,4.012,0,0,1,2.473.573,3.772,3.772,0,0,1,.045,2.484l.821.1a2,2,0,0,1,1.8,1.383,1.768,1.768,0,0,0-.315-1.45,1.811,1.811,0,0,0-1.742-.573,3.653,3.653,0,0,0-.1-2.439Zm5.373-7.385a3.4,3.4,0,0,1,.9,2.113,1.718,1.718,0,0,1,1.731-.1,1.671,1.671,0,0,1,.776,1.169,1.865,1.865,0,0,0-2.046-.6c.022,0,.045-.011.067-.011-.022,0-.045.011-.067.011l-.821.157a3.641,3.641,0,0,0-.9-2.181,3.553,3.553,0,0,0-2.316.393l-.2-.764a1.889,1.889,0,0,0-1.562-1.473,1.592,1.592,0,0,1,1.394.067,1.741,1.741,0,0,1,.809,1.54,3.3,3.3,0,0,1,2.237-.326Zm1.956-8.408a3.234,3.234,0,0,1,1.54,1.506,1.633,1.633,0,0,1,1.461-.731,1.524,1.524,0,0,1,1.09.731,1.724,1.724,0,0,0-1.978.236l-.584.472a3.822,3.822,0,0,0-1.641-1.709,3.587,3.587,0,0,0-1.911,1.214l-.4-.495a1.757,1.757,0,0,0-1.888-.708,1.489,1.489,0,0,1,1.225-.461,1.638,1.638,0,0,1,1.259,1.045,3.178,3.178,0,0,1,1.832-1.1Zm-.854-8.082a2.985,2.985,0,0,1,1.821.832,1.524,1.524,0,0,1,1.045-1.113,1.421,1.421,0,0,1,1.191.292,1.617,1.617,0,0,0-1.664.854l-.427.495a2.893,2.893,0,0,0-1.821-.832,2.976,2.976,0,0,0-1.259,1.574l-.629-.236a1.6,1.6,0,0,0-1.877-.011,1.4,1.4,0,0,1,.933-.8,1.484,1.484,0,0,1,1.428.517,2.934,2.934,0,0,1,1.259-1.574Zm-3.451-6.891a2.717,2.717,0,0,1,1.866.135,1.391,1.391,0,0,1,.551-1.315,1.328,1.328,0,0,1,1.135-.124,1.524,1.524,0,0,0-1.169,1.293l-.079.663a2.716,2.716,0,0,0-1.866-.135,2.8,2.8,0,0,0-.585,1.787l-.753-.09a1.5,1.5,0,0,0-1.641.6,1.36,1.36,0,0,1,.54-1.012,1.387,1.387,0,0,1,1.416-.011,2.776,2.776,0,0,1,.585-1.787Zm-5.047-5.261a2.534,2.534,0,0,1,1.686-.416,1.3,1.3,0,0,1,.09-1.315,1.243,1.243,0,0,1,.955-.438,1.387,1.387,0,0,0-.652,1.473l.067.607a2.549,2.549,0,0,0-1.686.416,2.507,2.507,0,0,0,.022,1.742l-.629.135a1.4,1.4,0,0,0-1.27,1,1.251,1.251,0,0,1,.18-1.045,1.294,1.294,0,0,1,1.248-.427,2.681,2.681,0,0,1-.011-1.731ZM98.327,178.581a2.96,2.96,0,0,1,3.012.9c2.023,2.226,3.766,5.755,6.587,5.856,1.686.056,4.373-1.349,6.992-3.08,1.236-.821,2.484-1.731,3.642-2.642a1.533,1.533,0,0,1-.27-.27,2.033,2.033,0,0,1-.214-.326c-.944.719-1.945,1.461-2.956,2.158-2.653,1.821-5.362,3.293-7.059,3.2s-3.934-2.271-5.44-4.474c-.472-.7-.776-1.529-1.652-1.787A3.465,3.465,0,0,0,98.327,178.581Z" transform="translate(-66.369 -118.05)"/>
          <path id="Path_46" data-name="Path 46" class="cls-3" d="M46.04,9.768l-5.632-3.26,1.416-.821h0L40.4,0V8.149Zm-11.274,0L40.4,6.508l-1.416-.821ZM20.422,6.508v1.63l5.632,1.619Zm0-6.508V6.508l1.416-.821ZM14.791,9.768l5.632-3.26-1.416-.821Zm.585,28.607a7.862,7.862,0,0,0-1.956-2.248,8.425,8.425,0,0,1,1.967,2.7c.719,1.517,1.27,3.7.989,4.148-.18.27-.393-2-1.192-3.754a16.032,16.032,0,0,0-2.147-3.35,1.956,1.956,0,0,0-.2-.124,20.344,20.344,0,0,0,1.079,5.013c.056.112.124.236.191.348a5.9,5.9,0,0,0,2.327,2.484C16.87,42.546,16.263,40.028,15.375,38.375Zm3.485.292a9.7,9.7,0,0,0-1.113,4.159,13.936,13.936,0,0,0,1.664-2.45,18.508,18.508,0,0,0,1.135-3.743,10.644,10.644,0,0,1-.832,3.856c-.585,1.315-1.6,2.642-1.956,2.484a2.493,2.493,0,0,0,.034.416,5.273,5.273,0,0,0,1.922-2.248,12.742,12.742,0,0,0,1.023-4.766A6.849,6.849,0,0,0,18.86,38.668Zm-1.54,8.273a10.757,10.757,0,0,0-1.236-1.383,11.013,11.013,0,0,0-.989-.8,7.937,7.937,0,0,1,1.09,1.045c1.147,1.293,2.3,3.3,2.124,3.833-.1.326-.944-1.888-2.237-3.383a15.267,15.267,0,0,0-2.788-2.45,5.291,5.291,0,0,0-.618-.18c.7,1.63,1.5,3.653,2.81,4.867a5.739,5.739,0,0,0,3.046,1.731A5.706,5.706,0,0,0,17.32,46.941Zm3.642-5.081a7.232,7.232,0,0,0-1.405,2.99,9.227,9.227,0,0,0,.18,5.036A5.677,5.677,0,0,0,21.2,46.974,13.353,13.353,0,0,0,20.962,41.86Zm.056,4.463c-.259,1.517-.955,3.181-1.383,3.08-.259-.056.731-1.394,1.045-3.114a18.318,18.318,0,0,0,.157-4.114A10.5,10.5,0,0,1,21.018,46.323Zm5.249-27.663a5.351,5.351,0,0,0-.652,1.7,16.646,16.646,0,0,0,1.956-2.181,11.644,11.644,0,0,0,1.1-2.1A9.622,9.622,0,0,0,26.267,18.659Zm2.63-2.765a6.219,6.219,0,0,1-.955,2.237,7.792,7.792,0,0,1-2.349,2.428c0,.045-.011.09-.011.135a8.46,8.46,0,0,0,2.8-2.99,6.24,6.24,0,0,0,.708-1.956C29.021,15.793,28.954,15.849,28.9,15.894Zm1.394,4.44a8.741,8.741,0,0,0-3.586,1.293,7.168,7.168,0,0,0,1.866-.056A15.593,15.593,0,0,0,31.64,20.6a9.286,9.286,0,0,1-3.024,1.214,6.291,6.291,0,0,1-2.226.056l-.157.157a4.715,4.715,0,0,0,1.922.067,13.071,13.071,0,0,0,4.159-1.731A6.8,6.8,0,0,0,30.292,20.334ZM23.75,18.716c-.045.067-.1.124-.146.191a6.593,6.593,0,0,1-.416,2.72c-.472,1.326-1.461,2.968-1.911,3.091-.281.079.978-1.45,1.551-2.968a12.233,12.233,0,0,0,.641-2.664,10.835,10.835,0,0,0-2.091,3.563,4.771,4.771,0,0,0-.169,2.327,8.207,8.207,0,0,0,2.338-3.9A6.731,6.731,0,0,0,23.75,18.716Zm2.316,4.777a8.868,8.868,0,0,0-3.271,1.933A7.853,7.853,0,0,0,24.784,25a16.164,16.164,0,0,0,2.923-1.607,9.041,9.041,0,0,1-2.821,1.855,5.8,5.8,0,0,1-2.361.483,1.529,1.529,0,0,0-.135.191,4.8,4.8,0,0,0,2.1-.292,12.029,12.029,0,0,0,3.7-2.484A6.67,6.67,0,0,0,26.065,23.493Zm-6.913-.461c-.034.079-.067.146-.1.225a7.117,7.117,0,0,1,.281,3.125c-.18,1.484-.809,3.406-1.248,3.631-.27.135.674-1.72.9-3.417a13.025,13.025,0,0,0,0-3.2A12.335,12.335,0,0,0,17.5,27.933a5.221,5.221,0,0,0,.4,2.518c.854-.742,1.6-3.08,1.641-4.7A6.686,6.686,0,0,0,19.152,23.032Zm3.3,4.732a9.308,9.308,0,0,0-2.911,2.7,8.823,8.823,0,0,0,2.147-.978,16.541,16.541,0,0,0,2.675-2.361,9.667,9.667,0,0,1-2.507,2.6,5.729,5.729,0,0,1-2.507,1.068,2.4,2.4,0,0,0-.112.247,4.98,4.98,0,0,0,2.3-.821A12.264,12.264,0,0,0,24.727,26.9,7.151,7.151,0,0,0,22.457,27.764ZM33.023,16.681a5.579,5.579,0,0,0-2.923,1.6,7.107,7.107,0,0,0,1.843-.18,10.732,10.732,0,0,0,2.585-1.225A5.772,5.772,0,0,1,32.1,18.356a5.578,5.578,0,0,1-2.192.214,1.249,1.249,0,0,0-.079.18,4.672,4.672,0,0,0,1.956-.056,8.008,8.008,0,0,0,3.282-2.08A5.361,5.361,0,0,0,33.023,16.681Zm-11.4,38.083a12.332,12.332,0,0,0-2.574-1.911c1.506.955,3.136,2.5,3.125,3.046,0,.36-1.54-1.6-3.316-2.709a15.712,15.712,0,0,0-3.17-1.484,6.507,6.507,0,0,0-1.023-.045A15.011,15.011,0,0,0,18.95,55.6a6.312,6.312,0,0,0,3.631.832A3.85,3.85,0,0,0,21.625,54.764Zm2.754-2.45a13.511,13.511,0,0,0-1.619-5.081,7.34,7.34,0,0,0-.652,3.541,9.906,9.906,0,0,0,1.54,4.98A5.875,5.875,0,0,0,24.379,52.314Zm-.91,2.889c-.281.011.36-1.619.2-3.44a19.236,19.236,0,0,0-.955-4.193,11.159,11.159,0,0,1,1.315,4.137C24.188,53.314,23.918,55.18,23.469,55.2Zm4.271,5.744a11.028,11.028,0,0,0-1.776-.967c1,.495,1.776,1.034,1.855,1.371.09.36-1.978-1.192-4.069-1.821a16.2,16.2,0,0,0-3-.573,7.663,7.663,0,0,0-1.551.259c1.551,1.068,3.406,2.372,5.272,2.709a6.652,6.652,0,0,0,3.912-.169A2.75,2.75,0,0,0,27.74,60.947Zm1.338-3.9a13.717,13.717,0,0,0-3.091-4.586,7.515,7.515,0,0,0,.371,3.912,10.891,10.891,0,0,0,2.664,4.238,1.336,1.336,0,0,0,.326.135A6.294,6.294,0,0,0,29.078,57.046Zm-.067,3.181c-.281.1-.112-1.731-.8-3.518A19.9,19.9,0,0,0,26.031,52.8a11.269,11.269,0,0,1,2.518,3.743C29.179,58.1,29.449,60.07,29.01,60.227ZM16.634,31.462a7.948,7.948,0,0,0-.832-2.169,5.973,5.973,0,0,0-.506-.618c-.011.056-.011.1-.022.146a7.411,7.411,0,0,1,1.315,3.338c.236,1.562.124,3.687-.259,4.024-.236.2.2-1.922-.034-3.721a14.391,14.391,0,0,0-1.023-3.6c-.27,1.652-.708,3.743-.281,5.418a7.63,7.63,0,0,0,.641,1.765,7.542,7.542,0,0,0,.585.708C16.927,35.869,17.061,33.194,16.634,31.462Zm3.35,1.416a9.274,9.274,0,0,0-2.136,3.5,10.635,10.635,0,0,0,2.057-1.686,16.95,16.95,0,0,0,2.023-3.125,9.862,9.862,0,0,1-1.776,3.316c-.809.967-1.956,1.832-2.361,1.776-.022.112-.045.214-.056.315a5.038,5.038,0,0,0,2.248-1.506,12.008,12.008,0,0,0,2.2-4.137A6.863,6.863,0,0,0,19.984,32.879Zm60.25,24.864a.994.994,0,0,0-.36-.135L73.253,55.1c-1.63-.618-2.675.6-3.237,1.72,2.192-1.473,6.868.629,6.047,3.664-.764,2.821-1.439,3.012-2.743,5.587.112-1.1-.674-1.664-1.72-2.237a27.783,27.783,0,0,1-3.788-2.6c-.1.169-.2.337-.315.506,1.551,1.2,3.046,2.54,4.552,3.8a1.469,1.469,0,0,1-.281,2.349c-.326.225-1.326.989-2.293,1.63a6.391,6.391,0,0,0-1.45,1.225c-.18.225-.3.45-.225.629.247.573,1.113.022,1.394-.124a8.522,8.522,0,0,0,2.45-1.922,17.785,17.785,0,0,0,1.787-2.473,50.136,50.136,0,0,0,2.833-5.036,11.738,11.738,0,0,1,1.225-2.63c.483-.551,1.832-1.63,2.675-1.045.629.438.483,1.675-.337,2.754s-1.843,1.63-2.293,1.281c-.292-.225.292-1.113.674-1.551.6-.663,1.034-.787,1.124-.607a1.41,1.41,0,0,1-.326,1.079c-.292.348-.641.562-.731.483s.2-.483.483-.821a1.84,1.84,0,0,1-.371-.157,1.726,1.726,0,0,0-.562.787.7.7,0,0,1,.18.281.2.2,0,0,0,.045.112c.18.214.719-.112,1.09-.573s.663-1.315.2-1.607c-.3-.2-1.023-.124-1.416-.495a3.636,3.636,0,0,0-.978,1.383,2.484,2.484,0,0,0-.281,1.124,1.285,1.285,0,0,0,.382.438c.652,1.023,2.214.135,3.069-1.124S81.032,58.226,80.234,57.743ZM40.757,16.4l-1.371,7.509V46.39l.495-.034h.1V31.743c0-3.777.281-7.52.416-11.286.146,3.766.416,7.509.416,11.286V46.356h.067a7.838,7.838,0,0,1,.91.079v-20.6A64.829,64.829,0,0,0,40.757,16.4Zm1.405,34.677a.478.478,0,0,0-.124-.022H39.205a.432.432,0,0,0-.393.393.379.379,0,0,0,.056.191.479.479,0,0,0,.124.022h2.821a.391.391,0,0,0,.393-.393A.286.286,0,0,0,42.162,51.077Zm0,2.08a.478.478,0,0,0-.124-.022H39.205a.432.432,0,0,0-.393.393.379.379,0,0,0,.056.191.478.478,0,0,0,.124.022h2.821a.391.391,0,0,0,.393-.393A.286.286,0,0,0,42.162,53.157Zm0,2.068a.478.478,0,0,0-.124-.022H39.205a.432.432,0,0,0-.393.393.379.379,0,0,0,.056.191.478.478,0,0,0,.124.022h2.821a.391.391,0,0,0,.393-.393A.3.3,0,0,0,42.162,55.225Zm-2.833-5.238v.686H41.69v-.686Zm0,4.148v.686H41.69v-.686Zm0,2.08V56.9H41.69v-.686Zm0-4.159v.686H41.69v-.686ZM42.162,57.3a.478.478,0,0,0-.124-.022H39.205a.432.432,0,0,0-.393.393.379.379,0,0,0,.056.191.479.479,0,0,0,.124.022h2.821a.391.391,0,0,0,.393-.393A.286.286,0,0,0,42.162,57.3Zm-2.833.978v.686H41.69v-.686Zm2.866,1.09a.4.4,0,0,0-.112-.022H39.172a.417.417,0,0,0-.36.618l1.45,2.529a.436.436,0,0,0,.506-.2l1.439-2.507A.373.373,0,0,0,42.2,59.373ZM42.162,49a.478.478,0,0,0-.124-.022H39.205a.432.432,0,0,0-.393.393.379.379,0,0,0,.056.191.478.478,0,0,0,.124.022h2.821a.391.391,0,0,0,.393-.393A.286.286,0,0,0,42.162,49Zm-8.655-9.363c-.54,1.585-2.619,2.765-5.081,2.765A7.325,7.325,0,0,1,27,42.265a6.868,6.868,0,0,0,3.046.674c2.743,0,5-1.461,5.2-3.3Zm20.716,0c-.54,1.585-2.619,2.765-5.081,2.765a7.41,7.41,0,0,1-1.428-.135,6.868,6.868,0,0,0,3.046.674c2.743,0,5-1.461,5.2-3.3ZM38.936,66.376c-1.7-.034-4.373-1.473-6.9-3.215-.888-.607-1.776-1.259-2.619-1.9a4.982,4.982,0,0,1-1.506-1.169c-.944-.753-1.787-1.461-2.428-2.023-.607-.528-1.18-1.09-1.742-1.675v.011a3.293,3.293,0,0,1-.877-.978,25.635,25.635,0,0,1-2.642-3.653c-.259-.438-.506-.877-.731-1.326a3.462,3.462,0,0,1-.4-.843,23.3,23.3,0,0,1-1.742-5.755,3.747,3.747,0,0,1-.157-1.012,30.289,30.289,0,0,1-.225-3.08,22.409,22.409,0,0,1,.135-2.743c.011-.09.022-.18.034-.281a22.671,22.671,0,0,1,1.36-5.351h-.1a4.009,4.009,0,0,1,.787-1.619,25.784,25.784,0,0,1,1.664-2.979c.214-.326.438-.641.663-.955a3.167,3.167,0,0,1,.472-.629,23.194,23.194,0,0,1,7.565-6.362c-.191-.056-.371-.124-.573-.191a.265.265,0,0,1,.022-.09,22.4,22.4,0,0,0-1.911,1.18A6.542,6.542,0,0,1,25.2,21.166a24.925,24.925,0,0,0-2.7,2.642,7.127,7.127,0,0,1-1.124,1.371c-.36.472-.708.955-1.034,1.461-.382.585-.753,1.18-1.09,1.8A7.567,7.567,0,0,1,18.2,30.574a23.671,23.671,0,0,0-1.1,3.057,7.4,7.4,0,0,1-.719,3.541,20.8,20.8,0,0,0-.135,2.642,7.645,7.645,0,0,1,.438,4.294c.157.843.36,1.664.6,2.473a7.969,7.969,0,0,1,1.54,3.945c.3.618.629,1.236.978,1.821.169.281.337.562.517.832a8.162,8.162,0,0,1,2.754,3.451A37.783,37.783,0,0,0,26.245,59.6,7.787,7.787,0,0,1,28.8,61.621c1.113.877,2.293,1.8,3.485,2.6,2.619,1.742,5.283,3.147,6.969,3.08a3.385,3.385,0,0,0,.832-.135A6.965,6.965,0,0,1,38.936,66.376ZM46.22,60.07c-.877.259-1.18,1.09-1.652,1.787a13.967,13.967,0,0,1-3.878,3.979,2.682,2.682,0,0,0,1.045.292h.157c1.45-1.248,2.653-3.26,3.968-4.71a2.952,2.952,0,0,1,3-.9A3.513,3.513,0,0,0,46.22,60.07ZM41.768,47a5.572,5.572,0,0,0-3.507,1.27H44.1A4.009,4.009,0,0,0,41.768,47ZM11.306,69.512c-.955-.652-1.967-1.405-2.293-1.63a1.47,1.47,0,0,1-.281-2.349c1.506-1.259,3-2.6,4.552-3.8a34.362,34.362,0,0,1-2.012-3.822l-.4-.888c-.079-.18-.18-.36-.281-.551.1,1.967-1.855,2.934-3.3,3.878-1.765,1.135-2.754-.112-3.249-.922-.866-1.416-1.585-1.967-2.552-2.046L.909,57.6a1.077,1.077,0,0,0-.36.135c-.776.495-.731,1.933.124,3.181s2.417,2.136,3.069,1.124a1.285,1.285,0,0,0,.382-.438,2.414,2.414,0,0,0-.281-1.124,3.731,3.731,0,0,0-.978-1.383c-.393.371-1.113.3-1.416.495-.45.292-.157,1.158.2,1.607s.91.787,1.09.573a.337.337,0,0,0,.045-.112.789.789,0,0,1,.18-.281,1.985,1.985,0,0,0-.562-.787,1.841,1.841,0,0,1-.371.157c.281.337.585.742.483.821s-.438-.135-.742-.483A1.365,1.365,0,0,1,1.448,60c.079-.169.528-.056,1.124.607.382.438.967,1.326.674,1.551-.45.348-1.473-.2-2.293-1.281s-.978-2.316-.337-2.754c.832-.585,2.181.506,2.675,1.045A11.978,11.978,0,0,1,4.517,61.8,52.562,52.562,0,0,0,7.35,66.837,17.141,17.141,0,0,0,9.137,69.31,8.727,8.727,0,0,0,11.6,71.232c.281.146,1.147.708,1.394.124.079-.18-.045-.4-.225-.629A7.382,7.382,0,0,0,11.306,69.512ZM66.014,9.768l-5.632-3.26L61.8,5.688,60.383,0V8.149Zm-11.274,0,5.632-3.26-1.416-.821Z" transform="translate(0.002)"/>
          <path id="Path_47" data-name="Path 47" class="cls-4" d="M77.821,9.768l-5.643-3.26h0v1.63l-5.632,1.63,5.643-3.26-1.416-.821L72.189,0V6.508l1.416-.821,4.215,4.08Zm-.337,30.485a.974.974,0,0,1-.079.191,1.27,1.27,0,0,0,0-.292c.022.034.056.067.079.1Zm-.3.562c0,.011-.011.011-.011.022,0-.011,0-.011.011-.022a2.115,2.115,0,0,1-.3.641,2.669,2.669,0,0,0-.641-.393,3.635,3.635,0,0,0-1.607.809c-.067.056-.124.112-.18.169a2.066,2.066,0,0,0-1.225-.809c-.022,0-.045-.011-.067-.011a.041.041,0,0,1-.034-.011,2.006,2.006,0,0,0-.259-.022.546.546,0,0,1,.034-.079,1.268,1.268,0,0,1,1.045-.3.041.041,0,0,1,.034.011,1.4,1.4,0,0,0,.27.989,1.646,1.646,0,0,1,.1-1.585,1.441,1.441,0,0,0,.315.933,1.593,1.593,0,0,1-.18-.955c.011-.067.022-.135.034-.191a1.379,1.379,0,0,1,.315-.259,1.641,1.641,0,0,0,.157,1.574,2.065,2.065,0,0,1-.112-1.158,2.453,2.453,0,0,1,.18-.6,1.525,1.525,0,0,0,.337,1.068,2,2,0,0,1-.169-1.147,1.768,1.768,0,0,1,.045-.259,1.143,1.143,0,0,1,1.079-.528c.652.112,1.068.944.91,1.866a1.281,1.281,0,0,0-.079.247Zm.2-.191a1.531,1.531,0,0,1-.472.854,4.105,4.105,0,0,1,.584.585,1.529,1.529,0,0,0,.247-.641,1.6,1.6,0,0,0-.18-1.057,1.5,1.5,0,0,1-.18.259ZM78.72,41.95a2.259,2.259,0,0,0-.967.472c-.045-.067-.09-.146-.135-.214a.787.787,0,0,0-.09-.112,1.416,1.416,0,0,0,.348-.652h.034a1.377,1.377,0,0,1,.809.506Zm-3.406,5.328a1.611,1.611,0,0,1,.135,2.2,2.473,2.473,0,0,1-.607.663,3.16,3.16,0,0,0-.483-.663,3.8,3.8,0,0,0-1.9.112,1.6,1.6,0,0,0-.247.09,3.2,3.2,0,0,0-.191-.517,1.719,1.719,0,0,1,.247-.719,1.552,1.552,0,0,1,.585-.562A1.566,1.566,0,0,0,72.8,48.9a1.725,1.725,0,0,1,.214-1.012c.022-.034.045-.079.067-.112a1.328,1.328,0,0,1,.348-.09,2.035,2.035,0,0,0-.281.337,1.672,1.672,0,0,0-.214,1.27,2.214,2.214,0,0,1,.36-1.18,2.476,2.476,0,0,1,.528-.6,1.67,1.67,0,0,0-.112,1.18A2.278,2.278,0,0,1,74,47.5c.034-.067.079-.124.112-.191a1.186,1.186,0,0,1,1.2-.034ZM74.876,50.2a4.31,4.31,0,0,1,.326.787,1.66,1.66,0,0,0,.393-.438,1.7,1.7,0,0,0,.247-1.124,2.525,2.525,0,0,1-.236.135h0a1.714,1.714,0,0,1-.731.641Zm.776-.742a1.956,1.956,0,0,0,.157-.135.726.726,0,0,0-.045-.146,1.466,1.466,0,0,1-.112.281Zm-.438,1.607a1.289,1.289,0,0,0,.483-.438c.011.011.022.011.034.022a1.323,1.323,0,0,1,.551.708,2.149,2.149,0,0,0-.989.09,2.3,2.3,0,0,0-.056-.27.5.5,0,0,0-.022-.112Zm-4.2-2.866a1.441,1.441,0,0,1,.225.124c.011.011.022.011.034.022a.235.235,0,0,1,.067.045,2.112,2.112,0,0,1,.629.686,1.4,1.4,0,0,1,.18-.7c-.011-.011-.022-.011-.034-.022a1.364,1.364,0,0,0-1.1-.157Zm-.292,6.969a1.7,1.7,0,0,1-.7,2.226,2.743,2.743,0,0,1-.719.371,3.56,3.56,0,0,0-.225-.877,4.021,4.021,0,0,0-1.922-.629,2.444,2.444,0,0,0-.281-.011,2.91,2.91,0,0,0-.011-.7,1.869,1.869,0,0,1,.416-.427,1.8,1.8,0,0,1,.854-.337,1.57,1.57,0,0,0-.382.922,1.823,1.823,0,0,1,.585-.91l.022-.022a1.737,1.737,0,0,1,.348.045,2.427,2.427,0,0,0-.4.225,1.761,1.761,0,0,0-.7,1.169,2.284,2.284,0,0,1,.8-1.023,2.378,2.378,0,0,1,.832-.4,1.7,1.7,0,0,0-.506,1.079,2.4,2.4,0,0,1,.742-1.068c.034-.022.067-.056.1-.079a1.284,1.284,0,0,1,1.147.45ZM69.3,57.878a4.586,4.586,0,0,1,.011.877,1.781,1.781,0,0,0,.427-.236,1.75,1.75,0,0,0,.674-1.057,1.36,1.36,0,0,1-.214.011c-.034.022-.056.045-.09.067a1.648,1.648,0,0,1-.809.337Zm.978-.472c.056-.011.112-.034.157-.045a.547.547,0,0,0,.011-.135c-.056.056-.112.124-.169.18Zm-.978,1.45a1.3,1.3,0,0,0,.528-.225c.011.011.011.022.022.034a1.552,1.552,0,0,1,.281.787,2.308,2.308,0,0,0-.888-.236,2.1,2.1,0,0,0,.045-.281c0-.034.011-.056.011-.079Zm-2.968-4.418a.4.4,0,0,1,.079.112c.011.011.011.022.022.034a.235.235,0,0,1,.045.067,2.167,2.167,0,0,1,.337.787,1.528,1.528,0,0,1,.348-.416c-.011-.011-.011-.022-.022-.034a1.377,1.377,0,0,0-.809-.551Zm9.791-22.953a2.017,2.017,0,0,1-.056,1.012,1.515,1.515,0,0,0,.214-.776,2.128,2.128,0,0,1,.259.832,2,2,0,0,1-.067.787A3.048,3.048,0,0,0,75.314,33a3.142,3.142,0,0,0-.742.641,2.016,2.016,0,0,1-.27-.843c.045.034.079.056.124.09a1.729,1.729,0,0,1-.135-.146c-.067-.854.348-1.6.955-1.664a1.008,1.008,0,0,1,.877.4Zm.764.944a1.1,1.1,0,0,0-.292-.27,1.456,1.456,0,0,1,.09.382,1.473,1.473,0,0,1-.146.832,2.76,2.76,0,0,1,.36.214,1.227,1.227,0,0,1,.191.146,1.244,1.244,0,0,1,.124-.191,1.373,1.373,0,0,0,0-.3,1.5,1.5,0,0,0-.259-.708,1.168,1.168,0,0,1-.169.382,1.429,1.429,0,0,0,.1-.483Zm.618.776a1.193,1.193,0,0,0-.169.169V33.2h.034a.542.542,0,0,1,.135,0Zm-2.945.461a1.462,1.462,0,0,1-.382-.877c0-.045-.011-.09-.011-.135-.034-.034-.067-.079-.1-.112a1.47,1.47,0,0,0-.281.821c.056.067.112.135.18.2-.067-.045-.124-.09-.191-.135a.642.642,0,0,0,.011.146,1.589,1.589,0,0,0,.3.776l.067-.135a5.268,5.268,0,0,1,.4-.551Zm-.472.708a.16.16,0,0,0-.023.067,1.888,1.888,0,0,0-1.281-.326,1.176,1.176,0,0,1,.843-.506h.034a1.365,1.365,0,0,0,.427.764Zm.079-1.843a.235.235,0,0,0-.045-.067c.022-.022.034-.045.056-.056a.5.5,0,0,0-.011.124Zm-2.3-8.217c.045.056.09.112.135.18a1.874,1.874,0,0,1,.326.967,1.375,1.375,0,0,0-.225-1.045c0-.011-.011-.011-.011-.022a1.75,1.75,0,0,1,.809.978,1.943,1.943,0,0,1,.124.7,3.076,3.076,0,0,0-1.18.079,2.879,2.879,0,0,0-.4.719,2.112,2.112,0,0,1-.506-.764c-.281-.776-.079-1.562.461-1.765a.846.846,0,0,1,.472-.022ZM73,25.067c-.045-.022-.09-.045-.146-.067a1.487,1.487,0,0,1,.169.326c.022.079.045.146.067.225a1.468,1.468,0,0,0-.09-.483Zm.09.495a1.211,1.211,0,0,0,.011-.45,1.423,1.423,0,0,1,.562.708c.011.034.022.056.034.09a1.893,1.893,0,0,0-.067.292,1.186,1.186,0,0,0-.214-.056c-.1-.022-.2-.045-.315-.067a1.6,1.6,0,0,0-.011-.517Zm-1.652,1.326a1.416,1.416,0,0,1-.551-.6,1.293,1.293,0,0,1-.281-.135,1.37,1.37,0,0,0,.067.787c.011.022.011.045.022.056a1.135,1.135,0,0,0,.169.079c-.056-.011-.1-.022-.146-.034a1.413,1.413,0,0,0,.472.573,1.251,1.251,0,0,1-.629-.641.039.039,0,0,0-.022.011,1.184,1.184,0,0,0-.731,1.079c.034-.022.056-.034.09-.056A.039.039,0,0,0,69.919,28c.022-.011.034-.022.056-.034a1.816,1.816,0,0,1,1.259-.157,1.691,1.691,0,0,1,.022-.225,3.04,3.04,0,0,1,.18-.7Zm-.584-.641c-.011-.034-.023-.056-.034-.09a1.378,1.378,0,0,1-.079-.36,1.224,1.224,0,0,0-.112.281c.067.056.146.112.225.169Zm-4.193-6.621a1.639,1.639,0,0,1,.36.562,1.1,1.1,0,0,0-.18-.483,1.9,1.9,0,0,1,.506.36,2.078,2.078,0,0,1,.36.483,2.425,2.425,0,0,0-.91.393,2.624,2.624,0,0,0-.146.933A1.882,1.882,0,0,1,66,21.458l-.1-.1a1.655,1.655,0,0,0,.236,0c-.09-.011-.191-.034-.292-.056a1.156,1.156,0,0,1-.157-1.5.873.873,0,0,1,.978-.18Zm.944.18a1.168,1.168,0,0,0-.438-.045,1.538,1.538,0,0,1,.27.2,1.245,1.245,0,0,1,.337.551,2.549,2.549,0,0,1,.393-.056,1.221,1.221,0,0,1,.2-.011c0-.022-.011-.045-.011-.079a1.256,1.256,0,0,0-.191-.236,1.273,1.273,0,0,0-.506-.315,1.8,1.8,0,0,1,.056.236,1.556,1.556,0,0,0-.112-.247Zm.753.157a1.825,1.825,0,0,0-.011.236l-.1-.135.022-.022a.643.643,0,0,1,.09-.079Zm-1.709,1.945a1.271,1.271,0,0,1-.731-.371c-.067-.067-.124-.146-.18-.214a.041.041,0,0,1-.034-.011,1.281,1.281,0,0,0,.18.686,1.032,1.032,0,0,0,.315.056,1.175,1.175,0,0,1-.281,0,1.644,1.644,0,0,0,.18.214,1.262,1.262,0,0,0,.551.326.362.362,0,0,1,.09-.011,1.306,1.306,0,0,1-.045-.2,3.2,3.2,0,0,1-.045-.472Zm-.09.7a1.648,1.648,0,0,0-.832.416.986.986,0,0,1,.281-.663l.022-.022a1.037,1.037,0,0,0,.528.27Zm-6.666-6.317c.045.011.1.034.146.045a1.654,1.654,0,0,1,.719.517,1.22,1.22,0,0,0-.663-.607,1.777,1.777,0,0,1,.821.1,1.654,1.654,0,0,1,.719.517,1.126,1.126,0,0,0-.382-.45,1.151,1.151,0,0,0-.36-.337,1.3,1.3,0,0,1,.742.045,1.4,1.4,0,0,1,.225.112,1.659,1.659,0,0,0,.157.506,1.105,1.105,0,0,0-.18.056,2.616,2.616,0,0,0-1.09.764,2.022,2.022,0,0,0,.045.562,1.784,1.784,0,0,1-.517-.112c-.663-.259-1.068-.832-.888-1.293a.809.809,0,0,1,.506-.427Zm.877-.18a.351.351,0,0,0-.112.056,1.01,1.01,0,0,1,.3.079.687.687,0,0,1,.157.079,1.121,1.121,0,0,0-.348-.214Zm1.124-.427a.843.843,0,0,0-.2.315c0,.011-.011.011-.011.022a.57.57,0,0,1,.18.1,1.177,1.177,0,0,1,.034-.438Zm-1.068,2.507a1.29,1.29,0,0,1-.573-.079h0a.843.843,0,0,1-.18.056,1.246,1.246,0,0,0,.618.495,1.149,1.149,0,0,0,.326.079,2.282,2.282,0,0,1-.191-.551Zm.214.618.034.067c.034.056.056.112.09.169a1.675,1.675,0,0,0-.54.348.98.98,0,0,1,.011-.6c0-.011.011-.011.011-.022a2.325,2.325,0,0,0,.393.034Zm-.809-.708a1.873,1.873,0,0,1-.259-.135c.022.056.045.1.067.157.067-.011.135-.011.191-.022Zm-.708,24.167a3.577,3.577,0,0,1-2.158-2.63H66.03c-.54,1.585-2.608,2.765-5.081,2.765a6.549,6.549,0,0,1-1.428-.135ZM81.834,56.821c2.192-1.473,6.868.629,6.047,3.664-.764,2.821-1.439,3.012-2.743,5.587.112-1.1-.674-1.664-1.72-2.237a27.784,27.784,0,0,1-3.788-2.6,34.17,34.17,0,0,0,1.7-3.316l.4-.888c.034-.079.067-.146.1-.214ZM13.3,57.383,19.347,55.1c1.461-.551,2.45.371,3.046,1.371.1,1.967-1.843,2.934-3.3,3.878-1.765,1.135-2.754-.112-3.249-.922-.854-1.405-1.574-1.967-2.54-2.046ZM34.207,30.754c-.067.18-.146.382-.225.573a6.781,6.781,0,0,0-2.192,1.551,9.274,9.274,0,0,0-2.136,3.5c-.146.112-.225.191-.169.236a.142.142,0,0,0,.1.045c-.022.112-.045.214-.056.315-.1.034-.191.056-.292.09-.169-1.1,1.023-3.35,2.2-4.541a5.971,5.971,0,0,1,2.765-1.765ZM26.9,28.349a5.017,5.017,0,0,1,.708.955A4.816,4.816,0,0,0,27.1,28.7c-.011.045-.011.1-.022.146a.476.476,0,0,1-.056-.079c.011.034.034.079.045.124-.27,1.652-.708,3.743-.281,5.418a7.629,7.629,0,0,0,.641,1.765,6.271,6.271,0,0,1-.843-2.136c-.427-1.731.056-3.923.315-5.587ZM37.242,51.83c.18.2.36.4.551.629a7.639,7.639,0,0,0,.371,3.912,10.891,10.891,0,0,0,2.664,4.238c-1.214-.663-2.709-2.934-3.26-4.732a7.657,7.657,0,0,1-.326-4.047Zm-6.857,6.958c.2.135.416.281.629.438a6.951,6.951,0,0,1,1.551-.259c-.742-.067-1.338-.09-1.664-.09a8.866,8.866,0,0,1,4.5.191A14.233,14.233,0,0,1,37.771,60a11.53,11.53,0,0,1,1.776.967,11.162,11.162,0,0,0-4.89-2.3,7.89,7.89,0,0,0-4.271.124ZM34.23,46.525c.1.225.214.472.337.719a7.34,7.34,0,0,0-.652,3.541,9.829,9.829,0,0,0,1.54,4.968c0,.011-.011.011-.011.022-1.045-.708-1.956-3.5-1.99-5.463a7.326,7.326,0,0,1,.776-3.788Zm-8.149,4.687c.124.146.259.3.393.461a6.619,6.619,0,0,1,1.023.045c-.4-.146-.742-.236-.955-.3a8.473,8.473,0,0,1,4.092,1.3c.079.045.146.09.225.135a12.045,12.045,0,0,1,2.574,1.911,11.517,11.517,0,0,0-3.383-2.619,7.753,7.753,0,0,0-3.968-.933Zm20.885-34.7c-.034.022-.056.045-.09.067a5.953,5.953,0,0,0-2.046.09,5.645,5.645,0,0,0-2.923,1.585c-.382,0-.618-.011-.585.09a.537.537,0,0,0,.393.191,1.248,1.248,0,0,0-.079.18,6.187,6.187,0,0,1-.652-.18c.157-.866,1.8-1.877,3.125-2.147a5.607,5.607,0,0,1,2.855.124ZM36.838,26.494a5.849,5.849,0,0,0-2.99.933c-1.394.8-3.08,2.574-3.226,3.619.146,0,.281,0,.427-.011.034-.079.067-.157.112-.247-.1-.011-.169-.034-.191-.09s.112-.135.382-.236a9.441,9.441,0,0,1,2.911-2.7,6.844,6.844,0,0,1,2.259-.866c.112-.146.214-.281.315-.4Zm-6.115-3.945a3.88,3.88,0,0,1,.225.483c-.034.067-.067.146-.1.225a2.282,2.282,0,0,0-.124-.292c.011.112.034.259.056.438a12.349,12.349,0,0,0-1.484,4.53,5.221,5.221,0,0,0,.4,2.518c-.022.022-.056.045-.079.067a4.9,4.9,0,0,1-.6-2.911c.056-1.7,1.045-3.6,1.7-5.058Zm9.51.393c-.079.067-.157.135-.247.2a6.914,6.914,0,0,0-2.113.337A8.868,8.868,0,0,0,34.6,25.415c-.36.045-.573.067-.551.157s.124.124.281.146a1.53,1.53,0,0,0-.135.191,4.372,4.372,0,0,1-.528-.1c.371-.933,2.271-2.2,3.7-2.642a5.369,5.369,0,0,1,2.866-.225Zm-4.822-4.9a14.064,14.064,0,0,0-2.619,4.316,4.478,4.478,0,0,0-.056,2.776,2.09,2.09,0,0,0,.259-.146,4.771,4.771,0,0,1,.169-2.327A10.723,10.723,0,0,1,35.253,19.1q.051-.438.067-.674a3.5,3.5,0,0,1,.067.495c.045-.067.1-.124.146-.191a2.987,2.987,0,0,0-.124-.686Zm8.8,2.282c-.034.011-.056.034-.09.045a6.731,6.731,0,0,0-2.023-.045,8.741,8.741,0,0,0-3.586,1.293c-.393-.034-.641-.056-.641.034s.124.169.326.214l-.157.157a4.481,4.481,0,0,1-.585-.214c.528-.787,2.574-1.619,4-1.776a5.137,5.137,0,0,1,2.754.292ZM40.929,14.95a13.757,13.757,0,0,0-3.372,3.428,4.189,4.189,0,0,0-.663,2.518,2.322,2.322,0,0,0,.495-.191.547.547,0,0,1,.011-.135.328.328,0,0,1-.1.022c-.079,0-.022-.079.124-.225a5.351,5.351,0,0,1,.652-1.7,10,10,0,0,1,2.405-2.585c.135-.348.236-.629.292-.8-.011.191-.034.4-.067.618l.191-.157a3.983,3.983,0,0,0,.034-.8ZM32.645,41.129c.034.236.079.483.124.731a7.022,7.022,0,0,0-1.405,2.99,9.227,9.227,0,0,0,.18,5.036.52.52,0,0,1-.079.079c-.776-.933-.922-3.732-.472-5.553a6.844,6.844,0,0,1,1.652-3.282ZM24.316,43.2a7.081,7.081,0,0,1,3.316,1.922,9.8,9.8,0,0,1,1.495,1.821,9.979,9.979,0,0,0-1.236-1.383,11.012,11.012,0,0,0-.989-.8,6.793,6.793,0,0,0-2.237-1.248l.438.3a5.292,5.292,0,0,0-.618-.18c-.056-.157-.112-.292-.169-.438Zm8.284-7.52a6.311,6.311,0,0,0-2.259,2.6c-.843,1.551-1.383,4.17-.91,5.216a1.465,1.465,0,0,0,.169-.112,2.4,2.4,0,0,1-.034-.416h-.011c-.034-.022-.034-.067.011-.146a9.608,9.608,0,0,1,1.113-4.148,7.053,7.053,0,0,1,1.866-2.3c.011-.236.034-.472.056-.686Zm-8.1-.315a18.116,18.116,0,0,0,1.225,5.4,20.565,20.565,0,0,1-1.079-5.013,1.955,1.955,0,0,1,.2.124c-.034-.045-.067-.079-.09-.112a4.786,4.786,0,0,1,.483.382,7.862,7.862,0,0,1,1.956,2.248c-.056-.1-.1-.191-.157-.281a7.308,7.308,0,0,0-2.54-2.743ZM50.81,25.831c0-3.777.933-8.172,1.405-11.938.1.809.225,1.652.348,2.507l-1.371,7.52V46.4c-.124.011-.247.022-.382.045V25.831ZM53.62,48.8a.4.4,0,0,1,.348.2.478.478,0,0,0-.124-.022H51.023a.432.432,0,0,0-.393.393.379.379,0,0,0,.056.191A.39.39,0,0,1,50.8,48.8Zm.045,10.375a.407.407,0,0,1,.337.2.4.4,0,0,0-.112-.022H50.978a.417.417,0,0,0-.36.618L52.08,62.5a.375.375,0,0,1-.214-.18l-1.461-2.529a.417.417,0,0,1,.36-.618ZM53.5,58.1v.18H51.136v.686h-.214V58.1H53.5Zm.124-1a.4.4,0,0,1,.348.2.478.478,0,0,0-.124-.022H51.023a.432.432,0,0,0-.393.393.379.379,0,0,0,.056.191A.39.39,0,0,1,50.8,57.1ZM53.5,51.875v.18H51.136v.686h-.214v-.866Zm0,4.159v.18H51.136V56.9h-.214v-.866Zm0-2.08v.18H51.136v.686h-.214v-.866Zm0-4.148v.18H51.136v.686h-.214v-.866Zm.124,5.216a.4.4,0,0,1,.348.2.478.478,0,0,0-.124-.022H51.023a.432.432,0,0,0-.393.393.379.379,0,0,0,.056.191.39.39,0,0,1,.112-.764Zm0-2.068a.4.4,0,0,1,.348.2.478.478,0,0,0-.124-.022H51.023a.432.432,0,0,0-.393.393.379.379,0,0,0,.056.191.39.39,0,0,1,.112-.764Zm0-2.08a.4.4,0,0,1,.348.2.478.478,0,0,0-.124-.022H51.023a.432.432,0,0,0-.393.393.379.379,0,0,0,.056.191.39.39,0,0,1,.112-.764ZM52.2,46.862a6.566,6.566,0,0,1,1.36.135,5.572,5.572,0,0,0-3.507,1.27H48.506a4.8,4.8,0,0,1,3.7-1.405Zm-6.89-7.228c-.54,1.585-2.608,2.765-5.081,2.765a7.325,7.325,0,0,1-1.428-.135,3.577,3.577,0,0,1-2.158-2.63ZM57.846,9.768,52.2,6.508h0v1.63L46.561,9.757,52.2,6.5l-1.416-.821L52.2,0V6.508l1.416-.821,4.226,4.08Zm-19.975,0-5.643-3.26h0v1.63L26.586,9.757,32.229,6.5l-1.416-.821L32.229,0V6.508l1.416-.821Z" transform="translate(-11.805)"/>
          <path id="Path_48" data-name="Path 48" class="cls-5" d="M76.1,188.482a1.182,1.182,0,0,1,.247-.315l4.519-3.721a2.372,2.372,0,0,1,1.461-.562c1.27.1,2.091,1.135,2.945,1.956a32.986,32.986,0,0,0,45.367,0c.4-.393.809-.832,1.248-1.2,2.293.866,2.956,2.192,2.687,3.642l-2.529-1.135-.551.528,1.473,3.53.348-.337a23.936,23.936,0,0,1-5.89,5.261,36.515,36.515,0,0,1-18.738,5.328c-9.6-.022-17.367-2.72-22.639-6.5-5.328-3.844-8.037-8.678-9.948-6.475Zm48.638-45.7v-.011h0v-.011h0a1.617,1.617,0,0,1,.27-.922,2.1,2.1,0,0,1,.674.371,2.609,2.609,0,0,1,.854,2.7,2.453,2.453,0,0,0-.573-.719,2.082,2.082,0,0,1,.629,1.821.9.9,0,0,0-.686.135.991.991,0,0,0-.4.753,2.4,2.4,0,0,1-1.371-.315,2.6,2.6,0,0,0,.832.371,2.572,2.572,0,0,1-2.81-.157,2.087,2.087,0,0,1-.517-.573,1.579,1.579,0,0,1,.686-.461c.056-.011.112-.034.169-.045l.629-.135a2.642,2.642,0,0,1-.022-1.742,2.534,2.534,0,0,1,1.686-.416l-.045-.641Zm.292,39.8-.821-.1a3.845,3.845,0,0,0-.045-2.484,3.85,3.85,0,0,0-2.473-.573l.056-.865a2.259,2.259,0,0,0-.438-1.338,3.067,3.067,0,0,0-.911.517,3.537,3.537,0,0,0-1,3.766,3.133,3.133,0,0,1,.742-1,2.507,2.507,0,0,0-.45,3.125,2.44,2.44,0,0,0,3.125.169,3.408,3.408,0,0,1-1.124.528,3.494,3.494,0,0,0,3.867-.247,2.906,2.906,0,0,0,.686-.8,2.22,2.22,0,0,0-1.214-.7Zm6.43-7.891a2.116,2.116,0,0,1,1.225.2,2.822,2.822,0,0,1-.337.933,3.31,3.31,0,0,1-3.316,1.562,3.1,3.1,0,0,0,.809-.854,2.86,2.86,0,0,1-1.855,1.124,1.289,1.289,0,0,0-.259-.7,1.422,1.422,0,0,0-1.428-.416,2.975,2.975,0,0,1,.079-1.99,3.379,3.379,0,0,0-.315,1.135,3.377,3.377,0,0,1-.382-3.664,3.232,3.232,0,0,1,.629-.776,2,2,0,0,1,.832,1.023l.2.764a3.553,3.553,0,0,1,2.316-.393,3.574,3.574,0,0,1,.9,2.181l.821-.157c.034.034.056.034.079.022Zm2.642-9.229a1.927,1.927,0,0,1,1.191-.3,2.648,2.648,0,0,1,.045.944,3.181,3.181,0,0,1-2.3,2.585,3.06,3.06,0,0,0,.393-1.045,2.821,2.821,0,0,1-1.113,1.619,1.2,1.2,0,0,0-.416-.438,1.4,1.4,0,0,0-1.484.18,2.78,2.78,0,0,1-.686-1.8,2.912,2.912,0,0,0,.146,1.1,3.159,3.159,0,0,1-1.652-3.046,2.759,2.759,0,0,1,.259-.9,1.909,1.909,0,0,1,1.09.585l.4.495a3.5,3.5,0,0,1,1.911-1.214,3.882,3.882,0,0,1,1.641,1.708l.573-.472Zm-.562-8.959a1.774,1.774,0,0,1,.944-.652,2.573,2.573,0,0,1,.337.809,2.961,2.961,0,0,1-1.2,3.024,2.717,2.717,0,0,0,.011-1.045,2.584,2.584,0,0,1-.562,1.9,1.13,1.13,0,0,0-.7-.393,1.281,1.281,0,0,0-1.124.573,2.66,2.66,0,0,1-1.012-1.281,2.914,2.914,0,0,0,.472.933,2.975,2.975,0,0,1-2.417-2.169,2.632,2.632,0,0,1-.056-.888,1.834,1.834,0,0,1,1.147.169l.629.236a3.018,3.018,0,0,1,1.259-1.574,2.986,2.986,0,0,1,1.821.832l.45-.472Zm-3.473-7.79V148.7h0a1.665,1.665,0,0,1,.607-.866,2.636,2.636,0,0,1,.562.607,2.8,2.8,0,0,1-.045,3.046,2.556,2.556,0,0,0-.337-.922,2.384,2.384,0,0,1,.135,1.866.984.984,0,0,0-.641-.079,1.157,1.157,0,0,0-.787.832,2.51,2.51,0,0,1-1.383-.8,2.837,2.837,0,0,0,.719.663,2.781,2.781,0,0,1-2.821-1.1,2.5,2.5,0,0,1-.337-.753,1.869,1.869,0,0,1,.618-.225,1.767,1.767,0,0,1,.416-.011h.011l.753.09a2.776,2.776,0,0,1,.584-1.787,2.716,2.716,0,0,1,1.866.135l.079-.686Zm-11.8-9.8.348.472a3.3,3.3,0,0,0-1.7.877,3,3,0,0,0,.731,1.641l-.562.169a1.353,1.353,0,0,0-.618.674,2.409,2.409,0,0,0,.618.36,2.38,2.38,0,0,0,2.529-.607,2.5,2.5,0,0,1-.843-.112,2.145,2.145,0,0,0,1.394-.124.8.8,0,0,1,.63-.877h0a1.859,1.859,0,0,0-1.057-1.574,2.409,2.409,0,0,1,.7.483,2.433,2.433,0,0,0-1.495-2.147,2.147,2.147,0,0,0-.7-.146,1.439,1.439,0,0,0,.011.9.011.011,0,0,0,.011.011Zm16.108,50.066-.18-.09-1.023.989.326.731a6.8,6.8,0,0,0,.877-1.63ZM81.271,188a1.373,1.373,0,0,0-.326.955,1.564,1.564,0,0,0,.528.944,2.2,2.2,0,0,0,.652.45.982.982,0,0,0,.618.045.992.992,0,0,0,.517-.292.981.981,0,0,0,.292-.506,1.1,1.1,0,0,0-.034-.539,3.536,3.536,0,0,0-.382-.719,2.05,2.05,0,0,1-.315-.629.237.237,0,0,1,.079-.225.268.268,0,0,1,.236-.079.8.8,0,0,1,.438.247.761.761,0,0,1,.247.4.579.579,0,0,1-.135.427l.54.472a1.041,1.041,0,0,0,.292-.809,1.441,1.441,0,0,0-.528-.911,1.657,1.657,0,0,0-.6-.393.922.922,0,0,0-.573-.045.9.9,0,0,0-.461.259.933.933,0,0,0-.259.742,1.851,1.851,0,0,0,.337.821,3.59,3.59,0,0,1,.3.517.544.544,0,0,1,.079.292.255.255,0,0,1-.1.2.455.455,0,0,1-.371.124.825.825,0,0,1-.483-.259.767.767,0,0,1-.259-.483.887.887,0,0,1,.18-.551L81.271,188Zm4.271,5.249,1.135-3.664-.6-.483L82.754,191l.6.483.742-.45,1.113.9-.27.821.607.495Zm-.135-1.922.45-1.338-1.2.731.753.607Zm.821,2.349.607.393,1.607-2.484.888.573.326-.506-2.372-1.54-.326.506.888.573-1.619,2.484ZM88.9,195.35l.618.371.776-1.281,2.192-1.1-.708-.427-1.428.787.011-1.641-.719-.438.056,2.439-.8,1.293Zm4.6,2.293.214-3.833-.686-.326-2.776,2.642.7.326.607-.607,1.293.607-.056.866.708.326Zm-.607-1.843.112-1.405-1,1,.888.4Zm5,3.338L97.7,195.3l-.719-.247-2.473,2.923.719.247.54-.674,1.349.461.034.866.742.259Zm-.787-1.765-.034-1.416-.888,1.09.922.326Zm2.012-1.731-.866,3.462,1.315.326a2.055,2.055,0,0,0,.641.079,1.222,1.222,0,0,0,.562-.157,1.514,1.514,0,0,0,.517-.517,2.583,2.583,0,0,0,.292-.708,2.627,2.627,0,0,0,.09-.843,1.7,1.7,0,0,0-.191-.641,1.2,1.2,0,0,0-.438-.45,2.4,2.4,0,0,0-.641-.225l-1.281-.326Zm.562.764-.573,2.293.517.135a1.522,1.522,0,0,0,.427.067.57.57,0,0,0,.315-.079.767.767,0,0,0,.27-.292,2.254,2.254,0,0,0,.225-.618,2.1,2.1,0,0,0,.079-.629.768.768,0,0,0-.112-.382.759.759,0,0,0-.281-.247,4.176,4.176,0,0,0-.562-.18l-.3-.067Zm2.136,3.462.708.1.214-1.54,1.394.191-.214,1.54.708.1.495-3.53-.708-.1-.191,1.394-1.394-.191.191-1.394-.708-.1-.495,3.53Zm3.53.427.719.067.315-3.552-.719-.067-.315,3.552Zm3.294.146.776-.067.472-2.72.944,2.6.764-.067.551-3.631-.719.067-.326,2.529-.843-2.428-.854.079-.438,2.5-.753-2.394-.731.067,1.158,3.473Zm4.17-.371.708-.1-.495-3.53-.708.1.495,3.53Zm3.395-1.9a1.063,1.063,0,0,1-.18.618.7.7,0,0,1-.45.27.792.792,0,0,1-.674-.157,1.561,1.561,0,0,1-.427-.9,1.435,1.435,0,0,1,.067-.955.834.834,0,0,1,.573-.4.761.761,0,0,1,.506.067.67.67,0,0,1,.337.382l.663-.3a1.316,1.316,0,0,0-.483-.573,1.487,1.487,0,0,0-1.113-.18,1.565,1.565,0,0,0-1.09.708,1.976,1.976,0,0,0-.191,1.45,1.874,1.874,0,0,0,.7,1.214,1.538,1.538,0,0,0,1.237.259,1.509,1.509,0,0,0,.877-.461,1.561,1.561,0,0,0,.36-.955l-.708-.079Zm4.586.056-2.349-3.035-.731.214-.348,3.811.731-.214.056-.854,1.371-.393.517.7.753-.225Zm-1.664-.989L118.3,196.1l-.1,1.405.933-.27Zm2.012.843.663-.27-.4-1,.315-.776,1.54,1.18.866-.348L122,195.383l.719-1.787-.9.36-.753,2.012-.6-1.473-.663.27,1.338,3.316Zm2.642-2.372a1.353,1.353,0,0,0,.8.618,1.54,1.54,0,0,0,1.068-.191,1.919,1.919,0,0,0,.629-.472,1.014,1.014,0,0,0,.247-.573.948.948,0,0,0-.112-.585.988.988,0,0,0-.382-.438,1.023,1.023,0,0,0-.517-.146,3.361,3.361,0,0,0-.809.124,1.9,1.9,0,0,1-.7.09.259.259,0,0,1-.191-.146.244.244,0,0,1,0-.247.979.979,0,0,1,.843-.438.625.625,0,0,1,.36.259l.629-.36a1.037,1.037,0,0,0-.674-.54,1.485,1.485,0,0,0-1.034.2,1.816,1.816,0,0,0-.573.427.98.98,0,0,0-.236.528.935.935,0,0,0,.708,1.023,1.944,1.944,0,0,0,.888-.056c.3-.068.495-.112.585-.124a.516.516,0,0,1,.3.023.375.375,0,0,1,.169.157.454.454,0,0,1,0,.382.737.737,0,0,1-.4.371.793.793,0,0,1-.54.09.873.873,0,0,1-.461-.348l-.6.371Zm6.34-2.327-3.136-2.214-.641.416.776,3.743.641-.416-.191-.843,1.191-.776.7.506.663-.416Zm-1.877-.461-1.135-.843.315,1.371.821-.528Zm2.214.292.517-.416-1.461-1.81,2.574.9.562-.45-2.248-2.765-.517.416,1.5,1.855-2.63-.933-.54.438,2.248,2.765Zm3.147-4.586-1.27-.607.573,1.281Z" transform="translate(-67.546 -122.488)"/>
          <g id="Group_42-2" data-name="Group 42" transform="translate(13.396 64.281)">
            <path id="Path_49" data-name="Path 49" class="cls-2" d="M119.5,573.1a1.373,1.373,0,0,0-.326.956,1.563,1.563,0,0,0,.528.944,2.19,2.19,0,0,0,.652.45,1.091,1.091,0,0,0,1.428-.753,1.1,1.1,0,0,0-.034-.54,3.552,3.552,0,0,0-.382-.719,2.053,2.053,0,0,1-.315-.63.237.237,0,0,1,.079-.225.267.267,0,0,1,.236-.079.8.8,0,0,1,.438.247.761.761,0,0,1,.247.4.579.579,0,0,1-.135.427l.54.472a1.041,1.041,0,0,0,.292-.809,1.441,1.441,0,0,0-.528-.911,1.657,1.657,0,0,0-.6-.393.921.921,0,0,0-.573-.045.9.9,0,0,0-.461.258.933.933,0,0,0-.259.742,1.85,1.85,0,0,0,.337.82,3.62,3.62,0,0,1,.3.517.545.545,0,0,1,.079.292.256.256,0,0,1-.1.2.455.455,0,0,1-.371.123.824.824,0,0,1-.483-.258.767.767,0,0,1-.259-.483.887.887,0,0,1,.18-.551l-.517-.461Z" transform="translate(-119.173 -571.866)"/>
            <path id="Path_50" data-name="Path 50" class="cls-2" d="M138.727,592.7l-3.327,1.9.6.483.742-.449,1.113.9-.27.832.607.494,1.135-3.664Zm-.686,2.214-.753-.607,1.2-.719Z" transform="translate(-133.576 -590.358)"/>
            <path id="Path_51" data-name="Path 51" class="cls-2" d="M166.2,605.163l1.607-2.484-.888-.573.326-.506,2.383,1.54-.337.506-.877-.573-1.619,2.484Z" transform="translate(-160.914 -598.258)"/>
            <path id="Path_52" data-name="Path 52" class="cls-2" d="M190,618.821l.776-1.281-.056-2.439.719.438-.011,1.63,1.439-.776.708.427-2.192,1.09-.764,1.281Z" transform="translate(-182.039 -610.24)"/>
            <path id="Path_53" data-name="Path 53" class="cls-2" d="M204.765,631.6,202,634.253l.7.326.607-.607,1.293.607-.056.865.708.337.214-3.833Zm-.124,2.316-.877-.4,1-1Z" transform="translate(-192.69 -624.886)"/>
            <path id="Path_54" data-name="Path 54" class="cls-2" d="M243.092,645.847l-.719-.247-2.473,2.922.719.247.54-.675,1.349.461.034.865.742.259Zm-1.517,1.753.888-1.09.034,1.405Z" transform="translate(-226.329 -637.312)"/>
            <path id="Path_55" data-name="Path 55" class="cls-2" d="M276.617,652.53a1.7,1.7,0,0,0-.191-.641,1.291,1.291,0,0,0-.438-.45,2.55,2.55,0,0,0-.641-.225l-1.281-.315-.866,3.462,1.315.326a2.053,2.053,0,0,0,.641.079,1.22,1.22,0,0,0,.562-.157,1.512,1.512,0,0,0,.517-.517,2.272,2.272,0,0,0,.292-.708A2.662,2.662,0,0,0,276.617,652.53Zm-.8.641a2.7,2.7,0,0,1-.225.619.767.767,0,0,1-.27.292.725.725,0,0,1-.315.079,1.656,1.656,0,0,1-.427-.079l-.517-.124.573-2.293.315.079a2.984,2.984,0,0,1,.562.18.674.674,0,0,1,.281.247.769.769,0,0,1,.112.382A2.077,2.077,0,0,1,275.819,653.17Z" transform="translate(-255.886 -642.016)"/>
            <path id="Path_56" data-name="Path 56" class="cls-2" d="M304.9,660.53l.495-3.53.719.1-.2,1.382,1.4.2.191-1.394.708.1-.495,3.529-.708-.1.214-1.54-1.394-.2-.214,1.551Z" transform="translate(-284.023 -647.43)"/>
            <path id="Path_57" data-name="Path 57" class="cls-2" d="M336.3,664.152l.3-3.552.719.056-.3,3.552Z" transform="translate(-311.894 -650.626)"/>
            <path id="Path_58" data-name="Path 58" class="cls-2" d="M356.458,662.789,355.3,659.3l.731-.056.753,2.383.427-2.5.854-.068.843,2.428.326-2.529.719-.067-.551,3.631-.764.068-.933-2.6-.472,2.72Z" transform="translate(-328.758 -649.117)"/>
            <path id="Path_59" data-name="Path 59" class="cls-2" d="M398.794,661.531,398.3,658l.708-.1.495,3.529Z" transform="translate(-366.924 -648.229)"/>
            <path id="Path_60" data-name="Path 60" class="cls-2" d="M413.22,656.166l.731.079a1.562,1.562,0,0,1-.36.955,1.667,1.667,0,0,1-2.113.2,1.828,1.828,0,0,1-.7-1.214,1.975,1.975,0,0,1,.191-1.45,1.553,1.553,0,0,1,1.09-.708,1.485,1.485,0,0,1,1.113.18,1.459,1.459,0,0,1,.483.573l-.663.3a.807.807,0,0,0-.337-.382.832.832,0,0,0-1.079.337,1.427,1.427,0,0,0-.067.955,1.5,1.5,0,0,0,.427.9.757.757,0,0,0,.674.157.7.7,0,0,0,.45-.27,1.411,1.411,0,0,0,.157-.618Z" transform="translate(-377.956 -644.764)"/>
            <path id="Path_61" data-name="Path 61" class="cls-2" d="M444.179,646.9l-.731.214-.348,3.811.731-.214.056-.854,1.371-.394.517.7.753-.214Zm-.236,2.3.1-1.4.843,1.135Z" transform="translate(-406.689 -638.466)"/>
            <path id="Path_62" data-name="Path 62" class="cls-2" d="M466.326,637.085,465,633.78l.663-.27.6,1.473.753-2.012.9-.371-.731,1.8,2.124,1.484-.854.348-1.54-1.18-.315.764.4,1Z" transform="translate(-426.127 -625.773)"/>
            <path id="Path_63" data-name="Path 63" class="cls-2" d="M495.1,627.058l.6-.382a.917.917,0,0,0,.461.349.794.794,0,0,0,.54-.09.825.825,0,0,0,.4-.371.453.453,0,0,0,0-.382.291.291,0,0,0-.169-.157.608.608,0,0,0-.3-.022c-.09.011-.281.056-.584.124a1.94,1.94,0,0,1-.888.056.936.936,0,0,1-.708-1.023,1.017,1.017,0,0,1,.236-.528,1.819,1.819,0,0,1,.573-.427,1.549,1.549,0,0,1,1.034-.2,1,1,0,0,1,.674.54l-.629.359a.594.594,0,0,0-.36-.259.98.98,0,0,0-.843.438.244.244,0,0,0,0,.247.259.259,0,0,0,.191.146,1.9,1.9,0,0,0,.7-.09,3.36,3.36,0,0,1,.809-.124,1.021,1.021,0,0,1,.517.146.989.989,0,0,1,.382.438,1.053,1.053,0,0,1,.112.585,1.013,1.013,0,0,1-.247.573,2.24,2.24,0,0,1-.629.472,1.539,1.539,0,0,1-1.068.191,1.289,1.289,0,0,1-.8-.607Z" transform="translate(-452.257 -618.117)"/>
            <path id="Path_64" data-name="Path 64" class="cls-2" d="M523.741,611l-.641.416.776,3.743.641-.416-.191-.843,1.192-.776.708.506.652-.427Zm.438,2.282-.315-1.372,1.135.843Z" transform="translate(-477.696 -606.601)"/>
            <path id="Path_65" data-name="Path 65" class="cls-2" d="M541.948,593.252l.517-.427L541,591.016l2.574.911.562-.461L541.9,588.7l-.528.416,1.506,1.855-2.642-.933-.539.438Z" transform="translate(-492.43 -586.808)"/>
            <path id="Path_66" data-name="Path 66" class="cls-2" d="M569.351,575.2l-.551.528,1.472,3.53.551-.528-.349-.787,1.023-.989.787.371.562-.551Zm.877,2.158-.573-1.281,1.27.607Z" transform="translate(-518.259 -574.825)"/>
          </g>
          <path id="Path_67" data-name="Path 67" class="cls-3" d="M415.292,137.977c.157-.427.753-.6,1.371-.416a.76.76,0,0,0-.495.427c-.168.461.225,1.034.888,1.293a1.71,1.71,0,0,0,.517.112c0,.023.011.045.011.067a1.289,1.289,0,0,1-.573-.079h0c.011,0,.022-.011.045-.011-.022,0-.034.011-.056.011a1.883,1.883,0,0,1-.259-.135c.023.056.045.1.068.157a1.818,1.818,0,0,1-.629-.112c-.663-.281-1.057-.854-.888-1.315ZM433.367,159.2c.663.079,1.113.9,1,1.821a2.378,2.378,0,0,1-.112.506.624.624,0,0,0-.079-.1,1.274,1.274,0,0,1,0,.292,2.041,2.041,0,0,1-.225.371,2.275,2.275,0,0,0,.056-.27c.146-.922-.258-1.765-.91-1.866a1.153,1.153,0,0,0-1.079.528c.191-.787.753-1.349,1.349-1.282Zm.584,2.9a1.919,1.919,0,0,1-.3.629c.011.011.023.022.034.022a1.531,1.531,0,0,0,.472-.854c-.067.079-.135.135-.2.2Zm.371-.461a1.66,1.66,0,0,1-.067,1.7.158.158,0,0,1,.034.045,1.417,1.417,0,0,0,.348-.652h.034a1.277,1.277,0,0,1,.809.506,2.357,2.357,0,0,1,.4-.034h.1a1.018,1.018,0,0,1,.258.034,1.42,1.42,0,0,0-1.18-1.338h-.034a1.4,1.4,0,0,1-.528.877,1.537,1.537,0,0,0,.393-.888,1.585,1.585,0,0,0-.393-1.259,1.3,1.3,0,0,1,0,.416,1.365,1.365,0,0,1-.18.6Zm-4.665.731a1.407,1.407,0,0,1,1.428-.944h.034v.045a1.647,1.647,0,0,0-.1,1.585,1.4,1.4,0,0,1-.27-.989.041.041,0,0,1-.034-.011,1.34,1.34,0,0,0-1.057.315Zm1.63-1.113a1.51,1.51,0,0,1,.641-.933,2.13,2.13,0,0,0-.1.4c0,.034-.011.067-.011.1a2.449,2.449,0,0,0-.18.6,2.17,2.17,0,0,0,.112,1.158,1.57,1.57,0,0,1-.27-1.18,2.019,2.019,0,0,1,.112-.393,1.225,1.225,0,0,0-.3.247Zm-2.743,14.691a1.7,1.7,0,0,1-.6,2.259,2.63,2.63,0,0,1-.742.427.549.549,0,0,0,.011-.135c-.056.067-.112.124-.169.191a2.48,2.48,0,0,1-.281.056,1.222,1.222,0,0,0,.2.011c-.034.022-.056.045-.09.067a1.761,1.761,0,0,1-.809.337c0-.034-.011-.067-.011-.1a2.432,2.432,0,0,0,.719-.371,1.7,1.7,0,0,0,.7-2.226,1.249,1.249,0,0,0-1.158-.438,1.63,1.63,0,0,1,2.226-.079Zm-1.36,2.776a1.749,1.749,0,0,1-.675,1.057,1.779,1.779,0,0,1-.427.236c0,.034-.011.067-.011.112a1.3,1.3,0,0,0,.528-.225c.011.011.011.022.023.034a1.551,1.551,0,0,1,.281.787,2.063,2.063,0,0,1,.618.45c.022.022.034.045.056.067s.022.022.022.034a1.766,1.766,0,0,1,.18.225,1.594,1.594,0,0,0,.067-2.012c-.011-.011-.011-.022-.022-.034a1.559,1.559,0,0,1-1.1.281A1.776,1.776,0,0,0,428.365,178a1.787,1.787,0,0,1-.315.337,1.667,1.667,0,0,1-.865.382Zm-3.574-1.888c-.011-.045-.011-.09-.023-.135a1.53,1.53,0,0,1,.349-.416c-.011-.011-.011-.023-.022-.034a1.41,1.41,0,0,0-.809-.54,1.014,1.014,0,0,0-.1-.112,1.566,1.566,0,0,1,1.967.326c.011.011.011.022.022.034a1.053,1.053,0,0,0-.112.112,1.8,1.8,0,0,0-.854.337,1.865,1.865,0,0,0-.416.427Zm1.506-.776a1.737,1.737,0,0,1,.348.045,2.423,2.423,0,0,0-.4.225,1.761,1.761,0,0,0-.7,1.169,2.283,2.283,0,0,1,.8-1.023,2.377,2.377,0,0,1,.832-.4,1.1,1.1,0,0,1,.124-.112,2.1,2.1,0,0,1,.393-.247,1.657,1.657,0,0,0-1.394.348Zm7.644-8.217a1.631,1.631,0,0,1,.247,2.2,2.66,2.66,0,0,1-.427.551.743.743,0,0,0-.045-.146,1.264,1.264,0,0,1-.124.281,1.486,1.486,0,0,1-.281.18,1.192,1.192,0,0,0,.214-.079h0a1.68,1.68,0,0,1-.708.641l-.034-.067a2.318,2.318,0,0,0,.607-.663,1.621,1.621,0,0,0-.135-2.2,1.165,1.165,0,0,0-1.191.034,1.519,1.519,0,0,1,1.877-.731Zm-.157,2.866a1.644,1.644,0,0,1-.247,1.124,1.833,1.833,0,0,1-.393.438c.011.022.011.056.022.079a1.289,1.289,0,0,0,.483-.438c.011.011.023.011.034.022a1.324,1.324,0,0,1,.551.708,1.878,1.878,0,0,1,.562.169l.067.034c.011,0,.022.011.034.011.09.045.157.09.236.135a1.507,1.507,0,0,0-.618-1.8c-.011-.011-.022-.011-.034-.022a1.422,1.422,0,0,1-.877.629,1.664,1.664,0,0,0,.753-.7,1.7,1.7,0,0,0,.124-1.394,1.407,1.407,0,0,1-.169.4,1.6,1.6,0,0,1-.528.6Zm-3.822-.27a.453.453,0,0,0-.056-.1,1.4,1.4,0,0,1,.18-.7c-.011-.011-.022-.011-.034-.023a1.364,1.364,0,0,0-1.1-.157h-.011a1.475,1.475,0,0,1,1.843-.393c.011.011.022.011.034.022l-.034.067a1.851,1.851,0,0,0-.584.562,1.872,1.872,0,0,0-.236.719Zm1.057-1.394a1.328,1.328,0,0,1,.348-.09,2.039,2.039,0,0,0-.281.337,1.672,1.672,0,0,0-.213,1.27,2.213,2.213,0,0,1,.36-1.18,2.478,2.478,0,0,1,.528-.6c.011-.034.034-.056.045-.09a1.651,1.651,0,0,1,.258-.348,1.521,1.521,0,0,0-1.045.7Zm1.585-17.659c.607-.146,1.259.438,1.461,1.293.011.034.011.056.023.09a.994.994,0,0,0-.854-.4c-.607.067-1.034.809-.955,1.664-.045-.067-.1-.135-.146-.2,0-.045.011-.09.011-.124l-.056.056a2.139,2.139,0,0,1-.2-.551c-.214-.865.112-1.686.719-1.821Zm1.63,1.607a2.13,2.13,0,0,1,.258.832,2,2,0,0,1-.067.787c.022.011.034.022.056.034a1.542,1.542,0,0,0,.056-1.214,1.344,1.344,0,0,1,.292.27,1.49,1.49,0,0,0-.775-1.416,1.8,1.8,0,0,1,.135.371,1.06,1.06,0,0,1,.045.337Zm.674.787a1.351,1.351,0,0,0,.022-.562.041.041,0,0,0,.034-.011,1.327,1.327,0,0,1,1.461.8.9.9,0,0,0-.236.056c-.011,0-.022.011-.034.011s-.045.011-.067.022a1.642,1.642,0,0,0-.63.371.549.549,0,0,0-.135.011h-.034v.169a1.493,1.493,0,0,0-.124.157,1.375,1.375,0,0,0,0-.3,1.673,1.673,0,0,0-.259-.719Zm-2.372,1.124a2.016,2.016,0,0,1-.27-.843,1.72,1.72,0,0,1-.146-.135.544.544,0,0,0,.011.135,1.531,1.531,0,0,0,.382.877c0-.011.011-.022.022-.034Zm-.483.731a.011.011,0,0,1-.011.011,1.306,1.306,0,0,1-.427-.776H430.4a1.175,1.175,0,0,0-.843.506.1.1,0,0,0-.056.011c-.023,0-.045.011-.068.011H429.4a1.792,1.792,0,0,0-.236.056,1.312,1.312,0,0,1,.944-1.371.042.042,0,0,0,.034-.011,1.221,1.221,0,0,0,.4.618.642.642,0,0,0,.011.146,1.537,1.537,0,0,0,.315.8Zm-.315-.989a1.47,1.47,0,0,1,.281-.821,1.538,1.538,0,0,1-.281-.6,1.562,1.562,0,0,1-.045-.393,1.5,1.5,0,0,0-.236,1.214,1.718,1.718,0,0,0,.281.6Zm-3.484-9.532a1.247,1.247,0,0,1,1.562.472.8.8,0,0,0-.461.022,1.333,1.333,0,0,0-.461,1.765,1.861,1.861,0,0,0,.506.764c0,.011-.011.011-.011.022a1.417,1.417,0,0,1-.551-.6c.045.011.1.034.146.045a1.355,1.355,0,0,1-.18-.09c-.011-.034-.022-.056-.034-.09a1.376,1.376,0,0,1-.079-.36,1.222,1.222,0,0,0-.112.281,2.1,2.1,0,0,1-.36-.4c-.461-.7-.438-1.518.034-1.832Zm1.787.551a2.465,2.465,0,0,0-.225-.259,1.4,1.4,0,0,1,.978.618,1.978,1.978,0,0,1,.158.3c-.045-.023-.09-.045-.146-.068a1.48,1.48,0,0,1,.169.326c.022.079.045.146.068.225v.011a1.334,1.334,0,0,1,0,.517c-.022,0-.045-.011-.068-.011a1.943,1.943,0,0,0-.124-.7,1.763,1.763,0,0,0-.809-.967Zm1,.731a1.423,1.423,0,0,1,.562.708c.011.034.022.056.034.09a1.707,1.707,0,0,1,.551-.832c.011-.011.034-.022.045-.034l.023-.023a1.1,1.1,0,0,1,.191-.124,1.2,1.2,0,0,0-1.529-.225c-.011,0-.011.011-.022.011a1.207,1.207,0,0,1,.146.427Zm-3.3,2.956a1.184,1.184,0,0,1,.73-1.079.04.04,0,0,0,.023-.011,1.21,1.21,0,0,0,.63.641,1.317,1.317,0,0,1-.472-.573,1.231,1.231,0,0,1-.607-.438c-.011,0-.011.011-.022.011a1.229,1.229,0,0,0-.371,1.517.627.627,0,0,0,.09-.067Zm.9-1.068c-.011-.023-.011-.045-.022-.056a1.464,1.464,0,0,1-.068-.787,1.324,1.324,0,0,1-.438-.427,1.789,1.789,0,0,1-.169-.326,1.379,1.379,0,0,0,.2,1.147,1.447,1.447,0,0,0,.495.45Zm-5.935-7.677c.326-.427,1.079-.382,1.686.09a1.726,1.726,0,0,1,.214.191.912.912,0,0,0-.967.157,1.156,1.156,0,0,0,.157,1.495,1.983,1.983,0,0,1-.585-.315,1.262,1.262,0,0,1-.506-1.619Zm2.091.36a1.9,1.9,0,0,1,.506.36,2.08,2.08,0,0,1,.36.483c.023,0,.045-.011.067-.011a1.4,1.4,0,0,0-.337-.551,1.21,1.21,0,0,0-.27-.2,1.169,1.169,0,0,1,.438.045,1.44,1.44,0,0,0-.348-.393,1.275,1.275,0,0,0-1.034-.259,1.138,1.138,0,0,1,.292.18,1.07,1.07,0,0,1,.326.348Zm.821.135a1.145,1.145,0,0,0-.337-.495c0-.011.011-.011.011-.023a1.118,1.118,0,0,1,1.416-.247.847.847,0,0,0-.124.157c0,.011-.011.011-.011.022s-.022.034-.034.045a1.456,1.456,0,0,0-.225.663.341.341,0,0,0-.09.09l-.022.023.1.135c0,.067.011.135.011.18a1.249,1.249,0,0,0-.191-.236,1.413,1.413,0,0,0-.506-.315Zm-1.012,2.035v.045a1.271,1.271,0,0,1-.731-.371c-.067-.067-.124-.146-.18-.214a.865.865,0,0,0,.169.023l.1.1a1.747,1.747,0,0,0,.641.416Zm0,.731a1.4,1.4,0,0,1-.551-.326,1.635,1.635,0,0,1-.18-.214,1.128,1.128,0,0,1-.528-.2c-.011.011-.011.011-.011.022a1.131,1.131,0,0,0,.124,1.439,1.6,1.6,0,0,1,.124-.169l.022-.022c.011-.011.023-.034.034-.045l.056-.056a.986.986,0,0,1,.281-.663l.022-.022a1.246,1.246,0,0,0,.528.27c.022,0,.056-.011.079-.011Zm-.764-.607a1.256,1.256,0,0,1-.18-.686,1.373,1.373,0,0,1-.517-.247,1.563,1.563,0,0,1-.236-.236,1.285,1.285,0,0,0,.517.944,1.251,1.251,0,0,0,.416.225Zm-5.789-5.755a1.777,1.777,0,0,1,.821.1,1.653,1.653,0,0,1,.719.517,1.124,1.124,0,0,0-.382-.45.715.715,0,0,1,.09.157,1.178,1.178,0,0,0-.225-.247c-.056-.022-.1-.056-.157-.079a1.513,1.513,0,0,0-.3-.079c.034-.022.079-.034.112-.056h0a1.2,1.2,0,0,0-.989.045,1.008,1.008,0,0,1,.3.079c0,.011,0,.011.011.011Zm.809-.169a1.3,1.3,0,0,1,.742.045,1.4,1.4,0,0,1,.225.112c0-.034-.011-.067-.011-.112-.056-.034-.112-.067-.18-.1,0-.011,0-.011.011-.023a.843.843,0,0,1,.2-.315c0-.011.011-.022.011-.034s.011-.034.011-.056,0-.011.011-.022c.022-.067.045-.124.067-.18a1.045,1.045,0,0,0-1.191.6c0,.011-.011.011-.011.022.045.034.079.045.112.067Zm.1,2.675a1.149,1.149,0,0,1-.326-.079,1.273,1.273,0,0,0-1.315-.551,1.339,1.339,0,0,1-.281-.146,1.2,1.2,0,0,0,.708.7,1.269,1.269,0,0,0,.731.056,1.115,1.115,0,0,1-.764.045c0,.011-.011.011-.011.022a1.048,1.048,0,0,0,.506,1.236.586.586,0,0,1,.067-.18c0-.011.011-.011.011-.022s.011-.034.023-.045a1.222,1.222,0,0,1,.27-.382.98.98,0,0,1,.011-.6c0-.011.011-.011.011-.023a.925.925,0,0,0,.393.045A.556.556,0,0,0,417.776,140.012Z" transform="translate(-368.576 -121.274)"/>
        </g>
      </g>
    </g>
  </g>
</svg>
