<svg id="logo_kejari_wb" xmlns="http://www.w3.org/2000/svg" viewBox="0 0 191.528 188.686">
  <defs>
    <style>
      .cls-1 {
        fill: #fff;
      }

      .cls-1, .cls-2 {
        fill-rule: evenodd;
      }

      .cls-2 {
        fill: #181818;
      }
    </style>
  </defs>
  <path id="Path_43" data-name="Path 43" class="cls-1" d="M281.344,231.48a4.588,4.588,0,0,0,3.277-4.316v-.879l-.533-.027c-.053,1.812-1.758,3.251-3.97,3.251a3.5,3.5,0,0,1-3.784-3.331v-.24l-12.149-.48a7.452,7.452,0,0,0-2.025-1.359v.639A3.156,3.156,0,0,1,263.493,227c-.08,1.572-1.625,2.664-3.81,3.25h-8.206c-2.211-.586-3.73-1.679-3.81-3.25A3.035,3.035,0,0,1,249,224.739V224.1a7.454,7.454,0,0,0-2.025,1.359l-12.176.48v.24a3.489,3.489,0,0,1-3.783,3.331c-2.211,0-3.916-1.466-3.97-3.251l-.533.027c-.027.293,0,.586,0,.879a4.64,4.64,0,0,0,3.277,4.316l-11.989,26v.346c0,5.036,5.941,9.165,13.242,9.165s13.242-4.13,13.242-9.165v-.346l-11.989-26a4.67,4.67,0,0,0,3.49-3.464l10.258.187c.08,1.812,2.291,3.41,5.462,4.183h8.206c3.17-.773,5.382-2.371,5.462-4.183l10.258-.187a4.67,4.67,0,0,0,3.49,3.464l-11.989,26v.346c0,5.036,5.941,9.165,13.242,9.165s13.242-4.13,13.242-9.165v-.346Zm-38.233,26H218.892L230.8,231.667h.426Zm24.858,0,11.91-25.844h.426l11.909,25.817H267.969Z" transform="translate(-159.771 -164.393)"/>
  <path id="Path_44" data-name="Path 44" class="cls-1" d="M357.6,243.386h-2.051V208.75c0-8.952.666-17.824.986-26.75.347,8.925.986,17.8.986,26.75v34.636Z" transform="translate(-260.783 -133.51)"/>
  <path id="Path_45" data-name="Path 45" class="cls-1" d="M85.812,267.254c.879-1.279-1.226-3.464-3.89-5.2-2.957-1.918-6.448-4.37-6.954-5.675a2.837,2.837,0,0,1,.16-2.4c4.556-5.222,10.95,6.261,23.606,15.346,12.469,8.979,30.879,15.346,53.659,15.4A86.475,86.475,0,0,0,196.807,272.1c3.837-2.4,10.178-7.327,13.961-12.469l.48-.453-.053-.133a16.8,16.8,0,0,0,2.078-3.89l1.439.666,1.332-1.279-2.291-1.039c.639-3.437-.906-6.581-6.368-8.632a7.235,7.235,0,0,1,4-1.785,5.565,5.565,0,0,1,3.464,1.332l10.711,8.819a2.858,2.858,0,0,1,.746,3.144c-.506,1.305-3.97,3.757-6.954,5.675-2.691,1.732-4.8,3.943-3.89,5.2.879,1.279,5.142-1.119,6.261-2.052-1.092,1.359-5.249,4.556-6.9,2.611-1.279-1.519.426-3.837,4.662-6.634,3.544-2.345,7.434-4.955,5.941-6.155s-5.062.986-7.567,3.49a95.262,95.262,0,0,1-134.415-.027c-2.531-2.5-6.075-4.689-7.567-3.49s2.371,3.837,5.941,6.155c4.263,2.8,5.941,5.115,4.663,6.634-1.652,1.971-5.835-1.226-6.9-2.611,1.119.959,5.355,3.357,6.235,2.078ZM175.066,136.49a3,3,0,0,1,.4-3.49,2.616,2.616,0,0,0-1.732,1.519,2.818,2.818,0,0,0,.666,2.8,5.533,5.533,0,0,0-3.25,1.945,5.632,5.632,0,0,0,1.172,3.623,2.828,2.828,0,0,0-2.345,1.652,2.715,2.715,0,0,0,.293,2.291,2.962,2.962,0,0,1,2-2.877l1.332-.4c-.773-1.012-1.785-2.558-1.732-3.89a7.919,7.919,0,0,1,4.023-2.078l-.826-1.093ZM190.253,232.7a8.467,8.467,0,0,0-5.568-1.359,4.442,4.442,0,0,0-.506-4.343,4.156,4.156,0,0,0-3.2-1.439,4.817,4.817,0,0,1,2.345,4.9l-.133,2.051a9.511,9.511,0,0,1,5.861,1.359,8.942,8.942,0,0,1,.107,5.888l1.945.24a4.741,4.741,0,0,1,4.263,3.277,4.19,4.19,0,0,0-.746-3.437,4.292,4.292,0,0,0-4.13-1.359,8.659,8.659,0,0,0-.24-5.781Zm12.735-17.5a8.052,8.052,0,0,1,2.131,5.009,4.073,4.073,0,0,1,4.1-.24,3.96,3.96,0,0,1,1.838,2.771,4.421,4.421,0,0,0-4.849-1.412c.053,0,.107-.027.16-.027-.053,0-.107.027-.16.027l-1.945.373a8.629,8.629,0,0,0-2.131-5.169,8.422,8.422,0,0,0-5.488.933l-.48-1.812a4.477,4.477,0,0,0-3.7-3.49,3.773,3.773,0,0,1,3.3.16,4.125,4.125,0,0,1,1.918,3.65,7.811,7.811,0,0,1,5.3-.773Zm4.636-19.929a7.666,7.666,0,0,1,3.65,3.57,3.87,3.87,0,0,1,3.464-1.732,3.613,3.613,0,0,1,2.584,1.732,4.087,4.087,0,0,0-4.689.559l-1.385,1.119a9.059,9.059,0,0,0-3.89-4.05,8.5,8.5,0,0,0-4.529,2.877l-.959-1.172a4.164,4.164,0,0,0-4.476-1.679,3.53,3.53,0,0,1,2.9-1.092,3.883,3.883,0,0,1,2.984,2.478,7.532,7.532,0,0,1,4.343-2.611ZM205.6,176.109a7.075,7.075,0,0,1,4.316,1.972,3.611,3.611,0,0,1,2.478-2.638,3.368,3.368,0,0,1,2.824.693,3.832,3.832,0,0,0-3.943,2.025l-1.013,1.172a6.857,6.857,0,0,0-4.316-1.972,7.053,7.053,0,0,0-2.984,3.73l-1.492-.559a3.8,3.8,0,0,0-4.449-.027,3.317,3.317,0,0,1,2.211-1.892,3.518,3.518,0,0,1,3.384,1.226,6.955,6.955,0,0,1,2.984-3.73Zm-8.179-16.332a6.44,6.44,0,0,1,4.423.32,3.3,3.3,0,0,1,1.305-3.117,3.149,3.149,0,0,1,2.691-.293,3.613,3.613,0,0,0-2.771,3.064l-.187,1.572a6.438,6.438,0,0,0-4.423-.32,6.629,6.629,0,0,0-1.386,4.236l-1.785-.213a3.566,3.566,0,0,0-3.89,1.412,3.222,3.222,0,0,1,1.279-2.4,3.288,3.288,0,0,1,3.357-.027,6.581,6.581,0,0,1,1.385-4.236Zm-11.963-12.469a6.007,6.007,0,0,1,4-.986,3.069,3.069,0,0,1,.213-3.117,2.945,2.945,0,0,1,2.265-1.039,3.286,3.286,0,0,0-1.545,3.49l.16,1.439a6.043,6.043,0,0,0-4,.986,5.943,5.943,0,0,0,.053,4.13l-1.492.32A3.322,3.322,0,0,0,182.1,154.9a2.966,2.966,0,0,1,.426-2.478,3.067,3.067,0,0,1,2.957-1.012,6.355,6.355,0,0,1-.027-4.1ZM130.6,241.038a7.015,7.015,0,0,1,7.14,2.132c4.8,5.275,8.926,13.641,15.613,13.881,4,.133,10.364-3.2,16.572-7.3,2.931-1.945,5.888-4.1,8.632-6.261a3.633,3.633,0,0,1-.639-.639,4.821,4.821,0,0,1-.506-.773c-2.238,1.705-4.609,3.464-7.007,5.116-6.288,4.316-12.709,7.806-16.732,7.593-4-.24-9.325-5.382-12.9-10.6-1.119-1.652-1.838-3.623-3.917-4.236A8.213,8.213,0,0,0,130.6,241.038Z" transform="translate(-54.852 -97.565)"/>
  <path id="Path_46" data-name="Path 46" class="cls-1" d="M109.129,23.153,95.781,15.426l3.357-1.945h0L95.754,0V19.316Zm-26.723,0,13.348-7.726L92.4,13.481Zm-34-7.726V19.29l13.348,3.837ZM48.409,0V15.426l3.357-1.945ZM35.061,23.153l13.348-7.726-3.357-1.945Zm1.385,67.807a18.634,18.634,0,0,0-4.636-5.329,19.97,19.97,0,0,1,4.663,6.394c1.705,3.6,3.011,8.766,2.345,9.831-.426.639-.932-4.742-2.824-8.9a38,38,0,0,0-5.089-7.94,4.637,4.637,0,0,0-.48-.293c.533,3.6.959,8.206,2.558,11.883.133.266.293.56.453.826,2.291,3.863,3.81,4.849,5.515,5.888C39.99,100.844,38.551,94.876,36.446,90.959Zm8.259.693a22.985,22.985,0,0,0-2.638,9.858c.453-.8,2.611-2.877,3.943-5.808A43.87,43.87,0,0,0,48.7,86.83a25.229,25.229,0,0,1-1.972,9.139c-1.385,3.117-3.783,6.261-4.636,5.888a5.909,5.909,0,0,0,.08.986c1.412-.906,2.718-1.972,4.556-5.329,1.732-3.2,2.1-7.593,2.425-11.3A16.233,16.233,0,0,0,44.706,91.652Zm-3.65,19.609a25.5,25.5,0,0,0-2.931-3.277,26.106,26.106,0,0,0-2.345-1.892,18.812,18.812,0,0,1,2.584,2.478c2.718,3.064,5.462,7.833,5.036,9.085-.24.773-2.238-4.476-5.3-8.02a36.186,36.186,0,0,0-6.607-5.808,12.541,12.541,0,0,0-1.465-.426c1.652,3.863,3.544,8.659,6.661,11.536,3.384,3.144,5.2,3.623,7.22,4.1C44.2,117.176,42.921,114.086,41.056,111.261Zm8.632-12.043a17.142,17.142,0,0,0-3.33,7.087c-.933,3.677-.826,9.059.426,11.936,1.279-1.385,2.425-2.8,3.464-6.9C51.153,107.611,50.354,103.055,49.688,99.219Zm.133,10.577c-.613,3.6-2.265,7.54-3.277,7.3-.613-.133,1.732-3.3,2.478-7.38a43.417,43.417,0,0,0,.373-9.751A24.884,24.884,0,0,1,49.821,109.8ZM62.263,44.227a12.683,12.683,0,0,0-1.545,4.023,39.456,39.456,0,0,0,4.636-5.169A27.6,27.6,0,0,0,67.965,38.1C65.754,39.911,63.462,41.989,62.263,44.227ZM68.5,37.673a14.74,14.74,0,0,1-2.265,5.3c-1.625,2.478-4.369,5.355-5.568,5.755,0,.107-.027.213-.027.32a20.051,20.051,0,0,0,6.634-7.087,14.789,14.789,0,0,0,1.679-4.636C68.791,37.433,68.631,37.567,68.5,37.673ZM71.8,48.2a20.719,20.719,0,0,0-8.5,3.064,16.989,16.989,0,0,0,4.423-.133A36.959,36.959,0,0,0,75,48.837a22.011,22.011,0,0,1-7.167,2.877,14.912,14.912,0,0,1-5.275.133l-.373.373a11.175,11.175,0,0,0,4.556.16c3.3-.373,6.954-2.558,9.858-4.1A16.121,16.121,0,0,0,71.8,48.2ZM56.3,44.361c-.107.16-.24.293-.346.453a15.626,15.626,0,0,1-.986,6.448c-1.119,3.144-3.464,7.034-4.529,7.327-.666.187,2.318-3.437,3.677-7.034a29,29,0,0,0,1.519-6.314c-2,2.558-4.21,5.542-4.956,8.446a11.308,11.308,0,0,0-.4,5.515c2.158-1.545,4.689-5.941,5.542-9.245A15.954,15.954,0,0,0,56.3,44.361Zm5.488,11.323a21.019,21.019,0,0,0-7.753,4.583,18.614,18.614,0,0,0,4.716-1.012,38.312,38.312,0,0,0,6.927-3.81,21.428,21.428,0,0,1-6.687,4.4,13.739,13.739,0,0,1-5.6,1.146,3.624,3.624,0,0,0-.32.453,11.377,11.377,0,0,0,4.982-.693c3.144-.986,6.235-3.73,8.766-5.888A15.809,15.809,0,0,0,61.784,55.684ZM45.4,54.592c-.08.187-.16.346-.24.533a16.869,16.869,0,0,1,.666,7.407c-.426,3.517-1.918,8.073-2.957,8.606-.639.32,1.6-4.076,2.131-8.1a30.874,30.874,0,0,0,0-7.593c-1.545,3.277-3.437,7.22-3.517,10.764a12.375,12.375,0,0,0,.959,5.968c2.025-1.758,3.783-7.3,3.89-11.137A15.848,15.848,0,0,0,45.4,54.592Zm7.833,11.217a22.063,22.063,0,0,0-6.9,6.394,20.913,20.913,0,0,0,5.089-2.318,39.205,39.205,0,0,0,6.341-5.6,22.913,22.913,0,0,1-5.941,6.155c-2.158,1.465-4.849,2.611-5.941,2.531a5.7,5.7,0,0,0-.266.586,11.8,11.8,0,0,0,5.462-1.945c2.957-1.705,5.462-5.089,7.54-7.86A16.95,16.95,0,0,0,53.231,65.808Zm25.045-26.27a13.224,13.224,0,0,0-6.927,3.783,16.846,16.846,0,0,0,4.369-.426,25.437,25.437,0,0,0,6.128-2.9,13.681,13.681,0,0,1-5.755,3.517,13.221,13.221,0,0,1-5.2.506,2.962,2.962,0,0,0-.187.426,11.073,11.073,0,0,0,4.636-.133c3.064-.613,5.648-3.117,7.78-4.929A12.708,12.708,0,0,0,78.276,39.538ZM51.26,129.8a29.229,29.229,0,0,0-6.1-4.529c3.57,2.265,7.433,5.915,7.407,7.22,0,.853-3.65-3.783-7.86-6.421a37.243,37.243,0,0,0-7.513-3.517,15.423,15.423,0,0,0-2.425-.107c2.824,3.33,6.208,7.407,10.151,9.325,4.4,2.131,6.421,2.078,8.606,1.972A9.126,9.126,0,0,0,51.26,129.8ZM57.787,124c-.08-4.023-2.1-8.366-3.837-12.043a17.4,17.4,0,0,0-1.545,8.393c.08,3.89,1.652,9.165,3.65,11.8C57.041,130.311,57.867,128.606,57.787,124Zm-2.158,6.847c-.666.027.853-3.837.48-8.153a45.6,45.6,0,0,0-2.265-9.938,26.449,26.449,0,0,1,3.117,9.8C57.334,126.368,56.7,130.791,55.629,130.844Zm10.124,13.615a26.14,26.14,0,0,0-4.21-2.291c2.371,1.172,4.21,2.451,4.4,3.25.213.853-4.689-2.824-9.645-4.316a38.394,38.394,0,0,0-7.114-1.359,18.165,18.165,0,0,0-3.677.613c3.677,2.531,8.073,5.622,12.5,6.421,5.036.933,7.06.32,9.272-.4A6.518,6.518,0,0,0,65.754,144.459Zm3.171-9.245c-1.226-4-4.529-7.726-7.327-10.87-.4,2.131-.533,4.876.879,9.272a25.814,25.814,0,0,0,6.314,10.044,3.166,3.166,0,0,0,.773.32C69.99,141.821,70.363,139.876,68.924,135.213Zm-.16,7.54c-.666.24-.266-4.1-1.892-8.339a47.158,47.158,0,0,0-5.169-9.272,26.71,26.71,0,0,1,5.968,8.872C69.164,137.718,69.8,142.38,68.764,142.753ZM39.43,74.574a18.838,18.838,0,0,0-1.972-5.142,14.157,14.157,0,0,0-1.2-1.465c-.027.133-.027.24-.053.346a17.567,17.567,0,0,1,3.117,7.913c.56,3.7.293,8.739-.613,9.538-.56.48.48-4.556-.08-8.819a34.109,34.109,0,0,0-2.425-8.526c-.639,3.917-1.679,8.872-.666,12.842a18.084,18.084,0,0,0,1.519,4.183,17.876,17.876,0,0,0,1.385,1.678C40.123,85.018,40.443,78.677,39.43,74.574Zm7.94,3.357a21.982,21.982,0,0,0-5.062,8.286,25.207,25.207,0,0,0,4.876-4,40.175,40.175,0,0,0,4.8-7.407,23.377,23.377,0,0,1-4.21,7.86c-1.918,2.291-4.636,4.343-5.6,4.21-.053.266-.107.506-.133.746,1.439-.453,2.9-1.119,5.329-3.57,2.451-2.478,3.97-6.474,5.222-9.8A16.268,16.268,0,0,0,47.37,77.931Zm142.807,58.934a2.355,2.355,0,0,0-.853-.32L173.632,130.6c-3.863-1.465-6.341,1.412-7.673,4.076,5.2-3.49,16.279,1.492,14.334,8.686-1.812,6.687-3.41,7.14-6.5,13.242.266-2.611-1.6-3.943-4.076-5.3a65.852,65.852,0,0,1-8.979-6.155c-.24.4-.48.8-.746,1.2,3.677,2.851,7.22,6.021,10.791,9.005,1.545,1.306,1.6,4-.666,5.568-.773.533-3.144,2.345-5.435,3.863a15.148,15.148,0,0,0-3.437,2.9c-.426.533-.719,1.066-.533,1.492.586,1.359,2.638.053,3.3-.293a20.2,20.2,0,0,0,5.808-4.556,42.152,42.152,0,0,0,4.236-5.861,118.84,118.84,0,0,0,6.714-11.936c.933-2.131,1.732-4.929,2.9-6.234,1.146-1.306,4.343-3.863,6.341-2.478,1.492,1.039,1.146,3.97-.8,6.528s-4.37,3.863-5.435,3.037c-.693-.533.693-2.638,1.6-3.677,1.412-1.572,2.451-1.865,2.664-1.439a3.342,3.342,0,0,1-.773,2.558c-.693.826-1.519,1.332-1.732,1.146-.24-.186.48-1.146,1.146-1.945a4.362,4.362,0,0,1-.879-.373,4.091,4.091,0,0,0-1.332,1.865,1.668,1.668,0,0,1,.426.666.473.473,0,0,0,.107.266c.426.506,1.705-.266,2.584-1.359.879-1.066,1.572-3.117.48-3.81-.719-.48-2.425-.293-3.357-1.172a8.618,8.618,0,0,0-2.318,3.277,5.887,5.887,0,0,0-.666,2.664,3.046,3.046,0,0,0,.906,1.039c1.545,2.425,5.249.32,7.274-2.664C191.962,141.421,192.069,138.011,190.177,136.865ZM96.606,38.872l-3.25,17.8v53.286l1.172-.08h.24V75.24c0-8.952.666-17.824.986-26.75.346,8.925.986,17.8.986,26.75v34.636h.16a18.577,18.577,0,0,1,2.158.187V61.226C99.084,54.192,97.725,46.279,96.606,38.872Zm3.33,82.194a1.134,1.134,0,0,0-.293-.053H92.93a1.024,1.024,0,0,0-.933.933.9.9,0,0,0,.133.453,1.134,1.134,0,0,0,.293.053h6.687a.927.927,0,0,0,.933-.932A.678.678,0,0,0,99.937,121.066Zm0,4.929a1.133,1.133,0,0,0-.293-.053H92.93a1.024,1.024,0,0,0-.933.933.9.9,0,0,0,.133.453,1.133,1.133,0,0,0,.293.053h6.687a.927.927,0,0,0,.933-.933A.678.678,0,0,0,99.937,125.995Zm0,4.9a1.133,1.133,0,0,0-.293-.053H92.93a1.024,1.024,0,0,0-.933.932.9.9,0,0,0,.133.453,1.133,1.133,0,0,0,.293.053h6.687a.927.927,0,0,0,.933-.933A.714.714,0,0,0,99.937,130.9Zm-6.714-12.416v1.625h5.6v-1.625Zm0,9.831v1.625h5.6v-1.625Zm0,4.929v1.625h5.6v-1.625Zm0-9.858v1.625h5.6v-1.625Zm6.714,12.442a1.133,1.133,0,0,0-.293-.053H92.93a1.024,1.024,0,0,0-.933.932.9.9,0,0,0,.133.453,1.135,1.135,0,0,0,.293.053h6.687a.927.927,0,0,0,.933-.932A.678.678,0,0,0,99.937,135.826Zm-6.714,2.318v1.625h5.6v-1.625Zm6.794,2.584a.947.947,0,0,0-.266-.053h-6.9A.989.989,0,0,0,92,142.141l3.437,5.995a1.033,1.033,0,0,0,1.2-.48l3.41-5.941A.883.883,0,0,0,100.017,140.729Zm-.08-24.592a1.133,1.133,0,0,0-.293-.053H92.93a1.024,1.024,0,0,0-.933.932.9.9,0,0,0,.133.453,1.134,1.134,0,0,0,.293.053h6.687a.927.927,0,0,0,.933-.933A.678.678,0,0,0,99.937,116.137ZM79.422,93.943C78.143,97.7,73.214,100.5,67.379,100.5a17.363,17.363,0,0,1-3.384-.32,16.279,16.279,0,0,0,7.22,1.6c6.5,0,11.856-3.464,12.336-7.833Zm49.1,0c-1.279,3.757-6.208,6.554-12.043,6.554a17.563,17.563,0,0,1-3.384-.32,16.279,16.279,0,0,0,7.22,1.6c6.5,0,11.856-3.464,12.336-7.833ZM92.29,157.327c-4.023-.08-10.364-3.49-16.359-7.62-2.1-1.439-4.21-2.984-6.208-4.5a11.808,11.808,0,0,1-3.57-2.771c-2.238-1.785-4.236-3.464-5.755-4.8-1.439-1.252-2.8-2.584-4.13-3.97v.027a7.806,7.806,0,0,1-2.078-2.318,60.762,60.762,0,0,1-6.261-8.659c-.613-1.039-1.2-2.078-1.732-3.144a8.2,8.2,0,0,1-.959-2,55.233,55.233,0,0,1-4.13-13.641,8.881,8.881,0,0,1-.373-2.4,71.794,71.794,0,0,1-.533-7.3,53.115,53.115,0,0,1,.32-6.5c.027-.213.053-.426.08-.666a53.736,53.736,0,0,1,3.224-12.682h-.24a9.5,9.5,0,0,1,1.865-3.837,61.114,61.114,0,0,1,3.943-7.06c.506-.773,1.039-1.519,1.572-2.265a7.505,7.505,0,0,1,1.119-1.492,54.975,54.975,0,0,1,17.931-15.08c-.453-.133-.879-.293-1.359-.453a.627.627,0,0,1,.053-.213,53.1,53.1,0,0,0-4.529,2.8,15.507,15.507,0,0,1-4.449,3.384,59.079,59.079,0,0,0-6.394,6.261,16.891,16.891,0,0,1-2.664,3.25C49.821,60.8,49,61.945,48.223,63.144c-.906,1.385-1.785,2.8-2.584,4.263a17.936,17.936,0,0,1-2.5,5.062,56.106,56.106,0,0,0-2.611,7.247c0,3.3-.586,6.607-1.705,8.393a49.288,49.288,0,0,0-.32,6.261c1.306,3.81,1.838,7.966,1.039,10.178.373,2,.853,3.943,1.412,5.861,2.158,3.2,3.7,6.9,3.65,9.352.719,1.465,1.492,2.931,2.318,4.316.4.666.8,1.332,1.226,1.972,3.2,2.558,5.861,5.755,6.528,8.179a89.556,89.556,0,0,0,7.54,7.034,18.458,18.458,0,0,1,6.048,4.8c2.638,2.078,5.435,4.263,8.259,6.155,6.208,4.13,12.522,7.46,16.519,7.3a8.022,8.022,0,0,0,1.972-.32A16.508,16.508,0,0,1,92.29,157.327Zm17.265-14.947c-2.078.613-2.8,2.584-3.917,4.236-2.558,3.757-5.995,7.54-9.192,9.432a6.357,6.357,0,0,0,2.478.693H99.3c3.437-2.957,6.288-7.726,9.405-11.163a7,7,0,0,1,7.114-2.131A8.328,8.328,0,0,0,109.555,142.38ZM99,111.395a13.208,13.208,0,0,0-8.313,3.011h13.828A9.5,9.5,0,0,0,99,111.395ZM26.8,164.761c-2.265-1.545-4.663-3.33-5.435-3.863-2.265-1.572-2.211-4.289-.666-5.568,3.57-2.984,7.114-6.155,10.79-9.005a81.447,81.447,0,0,1-4.769-9.059l-.959-2.1c-.187-.426-.426-.853-.666-1.306.24,4.663-4.4,6.954-7.833,9.192-4.183,2.691-6.528-.266-7.7-2.185-2.052-3.357-3.757-4.663-6.048-4.849l-1.359.506a2.553,2.553,0,0,0-.853.32c-1.838,1.172-1.732,4.583.293,7.54s5.728,5.062,7.274,2.664A3.046,3.046,0,0,0,9.777,146a5.722,5.722,0,0,0-.666-2.664,8.844,8.844,0,0,0-2.318-3.277c-.933.879-2.638.719-3.357,1.172-1.066.693-.373,2.744.48,3.81.879,1.092,2.158,1.865,2.584,1.359a.8.8,0,0,0,.107-.266,1.871,1.871,0,0,1,.426-.666A4.7,4.7,0,0,0,5.7,143.606a4.365,4.365,0,0,1-.879.373c.666.8,1.385,1.758,1.146,1.945s-1.039-.32-1.758-1.146a3.235,3.235,0,0,1-.773-2.558c.187-.4,1.252-.133,2.664,1.439.906,1.039,2.291,3.144,1.6,3.677-1.066.826-3.49-.48-5.435-3.037s-2.318-5.488-.8-6.528c1.972-1.385,5.169,1.2,6.341,2.478,1.172,1.306,1.972,4.13,2.9,6.234a124.583,124.583,0,0,0,6.714,11.936,40.63,40.63,0,0,0,4.236,5.861,20.684,20.684,0,0,0,5.835,4.556c.666.346,2.718,1.679,3.3.293.186-.426-.107-.959-.533-1.492A17.5,17.5,0,0,0,26.8,164.761ZM156.473,23.153l-13.348-7.726,3.357-1.945L143.125,0V19.316Zm-26.723,0L143.1,15.426l-3.357-1.945Z" transform="translate(0.002)"/>
  <path id="Path_47" data-name="Path 47" class="cls-1" d="M166.231,23.153l-13.375-7.726h0V19.29l-13.348,3.863,13.375-7.726-3.357-1.945L152.883,0V15.426l3.357-1.945,9.991,9.671Zm-.8,72.256a2.308,2.308,0,0,1-.187.453,3.012,3.012,0,0,0,0-.693c.053.08.133.16.187.24Zm-.719,1.332c0,.027-.027.027-.027.053,0-.027,0-.027.027-.053a5.012,5.012,0,0,1-.719,1.519,6.325,6.325,0,0,0-1.519-.933,8.615,8.615,0,0,0-3.81,1.918c-.16.133-.293.266-.426.4a4.9,4.9,0,0,0-2.9-1.918c-.053,0-.107-.027-.16-.027a.1.1,0,0,1-.08-.027,4.754,4.754,0,0,0-.613-.053,1.3,1.3,0,0,1,.08-.186,3.006,3.006,0,0,1,2.478-.719.1.1,0,0,1,.08.027,3.318,3.318,0,0,0,.639,2.345,3.9,3.9,0,0,1,.24-3.757,3.416,3.416,0,0,0,.746,2.211,3.777,3.777,0,0,1-.426-2.265c.027-.16.053-.32.08-.453a3.269,3.269,0,0,1,.746-.613,3.889,3.889,0,0,0,.373,3.73,4.894,4.894,0,0,1-.266-2.744,5.814,5.814,0,0,1,.426-1.412,3.615,3.615,0,0,0,.8,2.531,4.75,4.75,0,0,1-.4-2.718,4.2,4.2,0,0,1,.107-.613,2.71,2.71,0,0,1,2.558-1.252c1.545.266,2.531,2.238,2.158,4.423a3.035,3.035,0,0,0-.186.586Zm.48-.453a3.629,3.629,0,0,1-1.119,2.025,9.731,9.731,0,0,1,1.385,1.385,3.623,3.623,0,0,0,.586-1.519,3.8,3.8,0,0,0-.426-2.5,3.558,3.558,0,0,1-.426.613Zm3.171,3.144a5.355,5.355,0,0,0-2.291,1.119c-.107-.16-.213-.346-.32-.506a1.867,1.867,0,0,0-.213-.266,3.356,3.356,0,0,0,.826-1.545h.08a3.263,3.263,0,0,1,1.918,1.2Zm-8.073,12.629c1.412.906,1.572,3.25.32,5.222a5.861,5.861,0,0,1-1.439,1.572,7.49,7.49,0,0,0-1.146-1.572,9.018,9.018,0,0,0-4.5.266,3.8,3.8,0,0,0-.586.213,7.593,7.593,0,0,0-.453-1.226,4.074,4.074,0,0,1,.586-1.705,3.678,3.678,0,0,1,1.385-1.332,3.713,3.713,0,0,0-.133,2.4,4.089,4.089,0,0,1,.506-2.4c.053-.08.107-.187.16-.266a3.148,3.148,0,0,1,.826-.213,4.823,4.823,0,0,0-.666.8,3.963,3.963,0,0,0-.506,3.011,5.247,5.247,0,0,1,.853-2.8,5.87,5.87,0,0,1,1.252-1.412,3.958,3.958,0,0,0-.266,2.8,5.4,5.4,0,0,1,.693-2.824c.08-.16.187-.293.266-.453a2.81,2.81,0,0,1,2.851-.08Zm-1.039,6.927a10.214,10.214,0,0,1,.773,1.865,3.935,3.935,0,0,0,.933-1.039,4.018,4.018,0,0,0,.586-2.664,5.989,5.989,0,0,1-.559.32h0a4.063,4.063,0,0,1-1.732,1.519Zm1.838-1.758a4.64,4.64,0,0,0,.373-.32,1.719,1.719,0,0,0-.107-.346,3.475,3.475,0,0,1-.266.666Zm-1.039,3.81A3.055,3.055,0,0,0,161.2,120c.027.027.053.027.08.053a3.135,3.135,0,0,1,1.306,1.679,5.1,5.1,0,0,0-2.345.213,5.448,5.448,0,0,0-.133-.639,1.172,1.172,0,0,0-.053-.266Zm-9.964-6.794a3.412,3.412,0,0,1,.533.293c.027.027.053.027.08.053a.557.557,0,0,1,.16.107,5.006,5.006,0,0,1,1.492,1.625,3.321,3.321,0,0,1,.426-1.652c-.027-.027-.053-.027-.08-.053a3.233,3.233,0,0,0-2.611-.373Zm-.693,16.519c1.066,1.439.32,3.81-1.652,5.275a6.5,6.5,0,0,1-1.705.879,8.437,8.437,0,0,0-.533-2.078,9.531,9.531,0,0,0-4.556-1.492,5.788,5.788,0,0,0-.666-.027,6.9,6.9,0,0,0-.027-1.652,4.428,4.428,0,0,1,.986-1.012,4.267,4.267,0,0,1,2.025-.8,3.721,3.721,0,0,0-.906,2.185,4.321,4.321,0,0,1,1.385-2.158l.053-.053a4.117,4.117,0,0,1,.826.107,5.752,5.752,0,0,0-.959.533,4.175,4.175,0,0,0-1.652,2.771,5.413,5.413,0,0,1,1.892-2.425,5.635,5.635,0,0,1,1.972-.959,4.023,4.023,0,0,0-1.2,2.558,5.692,5.692,0,0,1,1.758-2.531c.08-.053.16-.133.24-.187a3.042,3.042,0,0,1,2.718,1.066Zm-3.357,6.421a10.868,10.868,0,0,1,.027,2.078,4.222,4.222,0,0,0,1.012-.559,4.148,4.148,0,0,0,1.6-2.5,3.224,3.224,0,0,1-.506.027c-.08.053-.133.107-.213.16a3.907,3.907,0,0,1-1.918.8Zm2.318-1.119c.133-.027.266-.08.373-.107a1.3,1.3,0,0,0,.027-.32c-.133.133-.266.293-.4.426Zm-2.318,3.437a3.08,3.08,0,0,0,1.252-.533c.027.027.027.053.053.08a3.679,3.679,0,0,1,.666,1.865,5.469,5.469,0,0,0-2.1-.559,4.968,4.968,0,0,0,.107-.666c0-.08.027-.133.027-.187ZM139,129.032a.957.957,0,0,1,.187.266c.027.027.027.053.053.08a.557.557,0,0,1,.107.16,5.136,5.136,0,0,1,.8,1.865,3.62,3.62,0,0,1,.826-.986c-.027-.027-.027-.053-.053-.08A3.263,3.263,0,0,0,139,129.032Zm23.206-54.405a4.781,4.781,0,0,1-.133,2.4,3.591,3.591,0,0,0,.506-1.838,5.043,5.043,0,0,1,.613,1.972,4.75,4.75,0,0,1-.16,1.865,7.224,7.224,0,0,0-2.744-.8,7.448,7.448,0,0,0-1.758,1.519,4.777,4.777,0,0,1-.639-2c.107.08.186.133.293.213a4.1,4.1,0,0,1-.32-.346c-.16-2.025.826-3.783,2.265-3.943a2.389,2.389,0,0,1,2.078.959Zm1.812,2.238a2.608,2.608,0,0,0-.693-.639,3.452,3.452,0,0,1,.213.906,3.492,3.492,0,0,1-.346,1.972,6.541,6.541,0,0,1,.853.506,2.907,2.907,0,0,1,.453.346,2.947,2.947,0,0,1,.293-.453,3.255,3.255,0,0,0,0-.719,3.544,3.544,0,0,0-.613-1.679,2.768,2.768,0,0,1-.4.906,3.387,3.387,0,0,0,.24-1.146Zm1.465,1.838a2.828,2.828,0,0,0-.4.4v-.4h.08a1.284,1.284,0,0,1,.32,0ZM158.5,79.8a3.465,3.465,0,0,1-.906-2.078c0-.107-.027-.213-.027-.32-.08-.08-.16-.187-.24-.266a3.485,3.485,0,0,0-.666,1.945c.133.16.266.32.426.48-.16-.107-.293-.213-.453-.32a1.523,1.523,0,0,0,.027.346,3.766,3.766,0,0,0,.719,1.838l.16-.32A12.49,12.49,0,0,1,158.5,79.8Zm-1.119,1.679a.379.379,0,0,0-.053.16,4.475,4.475,0,0,0-3.037-.773,2.786,2.786,0,0,1,2-1.2h.08a3.236,3.236,0,0,0,1.012,1.812Zm.186-4.369a.558.558,0,0,0-.107-.16c.053-.053.08-.107.133-.133a1.2,1.2,0,0,0-.027.293Zm-5.462-19.476c.107.133.213.266.32.426a4.442,4.442,0,0,1,.773,2.291,3.26,3.26,0,0,0-.533-2.478c0-.027-.027-.027-.027-.053a4.148,4.148,0,0,1,1.918,2.318,4.607,4.607,0,0,1,.293,1.652,7.292,7.292,0,0,0-2.8.186,6.823,6.823,0,0,0-.959,1.705,5.007,5.007,0,0,1-1.2-1.812c-.666-1.838-.186-3.7,1.092-4.183a2,2,0,0,1,1.119-.053Zm2.691,1.785c-.107-.053-.213-.107-.346-.16a3.522,3.522,0,0,1,.4.773c.053.186.107.346.16.533a3.479,3.479,0,0,0-.213-1.146Zm.213,1.172a2.87,2.87,0,0,0,.027-1.066,3.372,3.372,0,0,1,1.332,1.679c.027.08.053.133.08.213a4.487,4.487,0,0,0-.16.693,2.811,2.811,0,0,0-.506-.133c-.24-.053-.48-.107-.746-.16a3.8,3.8,0,0,0-.027-1.226ZM151.1,63.73a3.357,3.357,0,0,1-1.305-1.412,3.066,3.066,0,0,1-.666-.32,3.247,3.247,0,0,0,.16,1.865c.027.053.027.107.053.133a2.69,2.69,0,0,0,.4.186c-.133-.027-.24-.053-.346-.08a3.35,3.35,0,0,0,1.119,1.359,2.964,2.964,0,0,1-1.492-1.519.093.093,0,0,0-.053.027,2.807,2.807,0,0,0-1.732,2.558c.08-.053.133-.08.213-.133a.093.093,0,0,0,.053-.027c.053-.027.08-.053.133-.08a4.3,4.3,0,0,1,2.984-.373,4.007,4.007,0,0,1,.053-.533,7.2,7.2,0,0,1,.426-1.652Zm-1.385-1.519c-.027-.08-.053-.133-.08-.213a3.266,3.266,0,0,1-.187-.853,2.9,2.9,0,0,0-.266.666c.16.133.346.266.533.4Zm-9.938-15.693a3.884,3.884,0,0,1,.853,1.332,2.612,2.612,0,0,0-.426-1.146,4.5,4.5,0,0,1,1.2.853,4.925,4.925,0,0,1,.853,1.146,5.749,5.749,0,0,0-2.158.932,6.218,6.218,0,0,0-.346,2.211,4.462,4.462,0,0,1-1.545-.986l-.24-.24a3.923,3.923,0,0,0,.56,0c-.213-.027-.453-.08-.693-.133-.986-1.226-1.172-2.744-.373-3.544a2.069,2.069,0,0,1,2.318-.426Zm2.238.426a2.769,2.769,0,0,0-1.039-.107,3.646,3.646,0,0,1,.639.48,2.951,2.951,0,0,1,.8,1.306,6.042,6.042,0,0,1,.932-.133,2.894,2.894,0,0,1,.48-.027c0-.053-.027-.107-.027-.187a2.979,2.979,0,0,0-.453-.559,3.018,3.018,0,0,0-1.2-.746,4.257,4.257,0,0,1,.133.56,3.687,3.687,0,0,0-.266-.586Zm1.785.373a4.325,4.325,0,0,0-.027.56l-.24-.32.053-.053a1.522,1.522,0,0,1,.213-.187Zm-4.05,4.609a3.012,3.012,0,0,1-1.732-.879c-.16-.16-.293-.346-.426-.506a.1.1,0,0,1-.08-.027,3.035,3.035,0,0,0,.426,1.625,2.447,2.447,0,0,0,.746.133,2.785,2.785,0,0,1-.666,0,3.9,3.9,0,0,0,.426.506,2.991,2.991,0,0,0,1.305.773.857.857,0,0,1,.213-.027,3.094,3.094,0,0,1-.107-.48,7.59,7.59,0,0,1-.107-1.119Zm-.213,1.652a3.906,3.906,0,0,0-1.972.986,2.338,2.338,0,0,1,.666-1.572l.053-.053a2.458,2.458,0,0,0,1.252.639Zm-15.8-14.973c.107.027.24.08.346.107a3.919,3.919,0,0,1,1.705,1.226,2.892,2.892,0,0,0-1.572-1.439,4.212,4.212,0,0,1,1.945.24,3.92,3.92,0,0,1,1.705,1.226,2.668,2.668,0,0,0-.906-1.066,2.727,2.727,0,0,0-.853-.8,3.07,3.07,0,0,1,1.758.107,3.315,3.315,0,0,1,.533.266,3.933,3.933,0,0,0,.373,1.2,2.62,2.62,0,0,0-.426.133,6.2,6.2,0,0,0-2.584,1.812,4.792,4.792,0,0,0,.107,1.332,4.23,4.23,0,0,1-1.226-.266c-1.572-.613-2.531-1.972-2.1-3.064a1.917,1.917,0,0,1,1.2-1.012Zm2.078-.426a.833.833,0,0,0-.266.133,2.393,2.393,0,0,1,.719.186,1.627,1.627,0,0,1,.373.187,2.657,2.657,0,0,0-.826-.506Zm2.664-1.012a2,2,0,0,0-.48.746c0,.027-.027.027-.027.053a1.351,1.351,0,0,1,.426.24,2.791,2.791,0,0,1,.08-1.039Zm-2.531,5.941a3.057,3.057,0,0,1-1.359-.186h0a2,2,0,0,1-.426.133,2.952,2.952,0,0,0,1.465,1.172,2.725,2.725,0,0,0,.773.187,5.408,5.408,0,0,1-.453-1.306Zm.506,1.465.08.16c.08.133.133.266.213.4a3.97,3.97,0,0,0-1.279.826,2.324,2.324,0,0,1,.027-1.412c0-.027.027-.027.027-.053a5.511,5.511,0,0,0,.933.08ZM124.535,42.9a4.439,4.439,0,0,1-.613-.32c.053.133.107.24.16.373.16-.027.32-.027.453-.053Zm-1.679,57.283c-2.877-1.439-4.822-3.677-5.115-6.234h20.542C137,97.7,132.1,100.5,126.24,100.5a15.524,15.524,0,0,1-3.384-.32Zm52.887,34.5c5.2-3.49,16.279,1.492,14.334,8.686-1.812,6.687-3.41,7.14-6.5,13.242.266-2.611-1.6-3.943-4.076-5.3a65.853,65.853,0,0,1-8.979-6.155,80.994,80.994,0,0,0,4.023-7.86l.959-2.1c.08-.187.16-.346.24-.506ZM13.3,136.013,27.634,130.6c3.464-1.305,5.808.879,7.22,3.25.24,4.663-4.369,6.954-7.833,9.192-4.183,2.691-6.528-.266-7.7-2.185-2.025-3.33-3.73-4.663-6.021-4.849ZM62.856,72.9c-.16.426-.346.906-.533,1.359a16.072,16.072,0,0,0-5.2,3.677,21.982,21.982,0,0,0-5.062,8.286c-.346.266-.533.453-.4.56a.338.338,0,0,0,.24.107c-.053.266-.107.506-.133.746-.24.08-.453.133-.693.213-.4-2.611,2.425-7.94,5.222-10.764A14.152,14.152,0,0,1,62.856,72.9Zm-17.318-5.7a11.893,11.893,0,0,1,1.679,2.265,11.414,11.414,0,0,0-1.2-1.439c-.027.107-.027.24-.053.346a1.129,1.129,0,0,1-.133-.187c.027.08.08.187.107.293-.639,3.917-1.679,8.872-.666,12.842A18.083,18.083,0,0,0,46.79,85.5a14.864,14.864,0,0,1-2-5.062c-1.012-4.1.133-9.3.746-13.242ZM70.05,122.851c.426.48.853.959,1.305,1.492-.4,2.131-.506,4.876.879,9.272a25.814,25.814,0,0,0,6.314,10.044c-2.877-1.572-6.421-6.954-7.727-11.217-1.439-4.636-1.2-7.407-.773-9.592ZM53.8,139.343c.48.32.986.666,1.492,1.039a16.475,16.475,0,0,1,3.677-.613c-1.758-.16-3.171-.213-3.943-.213a21.014,21.014,0,0,1,10.657.453,33.735,33.735,0,0,1,5.622,2.211,27.329,27.329,0,0,1,4.21,2.291,26.457,26.457,0,0,0-11.59-5.462c-5.036-.986-7.913-.426-10.124.293Zm9.112-29.068c.24.533.506,1.119.8,1.705a17.4,17.4,0,0,0-1.545,8.393c.08,3.89,1.652,9.165,3.65,11.776,0,.027-.027.027-.027.053-2.478-1.679-4.636-8.286-4.716-12.949a17.363,17.363,0,0,1,1.838-8.979Zm-19.316,11.11c.293.346.613.719.932,1.092a15.688,15.688,0,0,1,2.425.107c-.959-.346-1.758-.56-2.265-.719a20.082,20.082,0,0,1,9.7,3.091c.186.107.346.213.533.32a28.55,28.55,0,0,1,6.1,4.529A27.3,27.3,0,0,0,53,123.6c-4.4-2.1-7.194-2.318-9.4-2.211ZM93.1,39.139c-.08.053-.133.107-.213.16a14.11,14.11,0,0,0-4.849.213,13.379,13.379,0,0,0-6.927,3.757c-.906,0-1.465-.027-1.385.213a1.273,1.273,0,0,0,.932.453,2.959,2.959,0,0,0-.186.426,14.666,14.666,0,0,1-1.545-.426c.373-2.052,4.263-4.449,7.407-5.089a13.289,13.289,0,0,1,6.767.293ZM69.091,62.8A13.864,13.864,0,0,0,62,65.009c-3.3,1.892-7.3,6.1-7.647,8.579.346,0,.666,0,1.012-.027.08-.187.16-.373.266-.586-.24-.027-.4-.08-.453-.213-.08-.16.266-.32.906-.56a22.378,22.378,0,0,1,6.9-6.394,16.223,16.223,0,0,1,5.355-2.052c.266-.346.506-.666.746-.959ZM54.6,53.446a9.2,9.2,0,0,1,.533,1.146c-.08.16-.16.346-.24.533a5.408,5.408,0,0,0-.293-.693c.027.266.08.613.133,1.039-1.545,3.277-3.437,7.22-3.517,10.737a12.376,12.376,0,0,0,.959,5.968c-.053.053-.133.107-.187.16-.8-1.519-1.519-2.931-1.412-6.9.133-4.023,2.478-8.526,4.023-11.989Zm22.54.933c-.187.16-.373.32-.586.48a16.389,16.389,0,0,0-5.009.8,21.019,21.019,0,0,0-7.753,4.583c-.853.107-1.359.16-1.306.373.053.186.293.293.666.346a3.626,3.626,0,0,0-.32.453,10.361,10.361,0,0,1-1.252-.24c.879-2.211,5.382-5.222,8.766-6.261a12.726,12.726,0,0,1,6.794-.533ZM65.707,42.762c-2.185,2.9-5.275,6.607-6.208,10.231s-.56,5.036-.133,6.581a4.955,4.955,0,0,0,.613-.346,11.308,11.308,0,0,1,.4-5.515c.746-2.931,2.957-5.888,4.956-8.446q.12-1.039.16-1.6a8.284,8.284,0,0,1,.16,1.172c.107-.16.24-.293.346-.453a7.079,7.079,0,0,0-.293-1.625Zm20.862,5.409c-.08.027-.133.08-.213.107a15.954,15.954,0,0,0-4.8-.107,20.719,20.719,0,0,0-8.5,3.064c-.933-.08-1.519-.133-1.519.08s.293.4.773.506l-.373.373a10.622,10.622,0,0,1-1.385-.506c1.252-1.865,6.1-3.837,9.485-4.21a12.175,12.175,0,0,1,6.528.693Zm-7.78-12.735c-2.664,2.238-6.341,5.009-7.993,8.126s-1.625,4.476-1.572,5.968a5.5,5.5,0,0,0,1.172-.453,1.3,1.3,0,0,1,.027-.32.778.778,0,0,1-.24.053c-.186,0-.053-.186.293-.533a12.683,12.683,0,0,1,1.545-4.023c1.226-2.238,3.517-4.316,5.7-6.128.32-.826.559-1.492.693-1.892-.027.453-.08.959-.16,1.465.16-.133.293-.24.453-.373a9.44,9.44,0,0,0,.08-1.892ZM59.153,97.487c.08.559.187,1.146.293,1.732a16.645,16.645,0,0,0-3.33,7.087c-.933,3.677-.826,9.059.426,11.936a1.232,1.232,0,0,1-.187.187c-1.838-2.211-2.185-8.845-1.119-13.162,1.092-4.29,2.558-6.341,3.917-7.78Zm-19.743,4.9c2.025.48,4.476,1.439,7.86,4.556a23.239,23.239,0,0,1,3.544,4.316,23.652,23.652,0,0,0-2.931-3.277,26.1,26.1,0,0,0-2.345-1.892,16.1,16.1,0,0,0-5.3-2.957q.4.28,1.039.719a12.54,12.54,0,0,0-1.465-.426c-.133-.373-.266-.693-.4-1.039ZM59.046,84.565a14.959,14.959,0,0,0-5.355,6.155c-2,3.677-3.277,9.885-2.158,12.362a3.473,3.473,0,0,0,.4-.266,5.681,5.681,0,0,1-.08-.986h-.027c-.08-.053-.08-.16.027-.346a22.773,22.773,0,0,1,2.638-9.831,16.718,16.718,0,0,1,4.423-5.462c.027-.56.08-1.119.133-1.625Zm-19.21-.746c.56,3.89.986,8.979,2.9,12.789-1.6-3.7-2.025-8.313-2.558-11.883a4.634,4.634,0,0,1,.48.293c-.08-.107-.16-.187-.213-.266a11.346,11.346,0,0,1,1.146.906,18.634,18.634,0,0,1,4.636,5.329c-.133-.24-.24-.453-.373-.666-2.318-3.863-4.316-5.462-6.021-6.5Zm62.372-22.593c0-8.952,2.211-19.369,3.33-28.295.24,1.918.533,3.917.826,5.941L103.114,56.7v53.286c-.293.027-.586.053-.906.107V61.226Zm6.661,54.432a.941.941,0,0,1,.826.48,1.133,1.133,0,0,0-.293-.053h-6.687a1.024,1.024,0,0,0-.932.932.9.9,0,0,0,.133.453.924.924,0,0,1,.266-1.812Zm.107,24.592a.965.965,0,0,1,.8.48.947.947,0,0,0-.266-.053h-6.9a.989.989,0,0,0-.853,1.465l3.464,5.995a.888.888,0,0,1-.506-.426l-3.464-5.995a.989.989,0,0,1,.853-1.465Zm-.4-2.531v.426h-5.6v1.625h-.506v-2.052Zm.293-2.371a.941.941,0,0,1,.826.48,1.133,1.133,0,0,0-.293-.053h-6.687a1.024,1.024,0,0,0-.932.932.9.9,0,0,0,.133.453.924.924,0,0,1,.266-1.812Zm-.293-12.389v.426h-5.6v1.625h-.506v-2.052Zm0,9.858v.426h-5.6v1.625h-.506v-2.052Zm0-4.929v.426h-5.6v1.625h-.506v-2.051Zm0-9.831v.426h-5.6v1.625h-.506v-2.052Zm.293,12.362a.941.941,0,0,1,.826.48,1.132,1.132,0,0,0-.293-.053h-6.687a1.024,1.024,0,0,0-.932.932.9.9,0,0,0,.133.453.924.924,0,0,1,.266-1.812Zm0-4.9a.941.941,0,0,1,.826.48,1.133,1.133,0,0,0-.293-.053h-6.687a1.024,1.024,0,0,0-.932.933.9.9,0,0,0,.133.453.924.924,0,0,1,.266-1.812Zm0-4.929a.941.941,0,0,1,.826.48,1.133,1.133,0,0,0-.293-.053h-6.687a1.024,1.024,0,0,0-.932.933.9.9,0,0,0,.133.453.924.924,0,0,1,.266-1.812Zm-3.357-9.512a15.563,15.563,0,0,1,3.224.32,13.208,13.208,0,0,0-8.313,3.011H96.746c1.519-1.945,4.876-3.33,8.766-3.33ZM89.18,93.943C87.9,97.7,83,100.5,77.137,100.5a17.363,17.363,0,0,1-3.384-.32c-2.877-1.439-4.822-3.677-5.115-6.234Zm29.707-70.791-13.375-7.726h0V19.29L92.137,23.126,105.512,15.4l-3.357-1.945L105.512,0V15.426l3.357-1.945,10.018,9.671Zm-47.345,0L58.167,15.426h0V19.29L44.792,23.126,58.167,15.4,54.81,13.455,58.167,0V15.426l3.357-1.945Z" transform="translate(-9.756)"/>
  <path id="Path_48" data-name="Path 48" class="cls-1" d="M76.1,257.654a2.8,2.8,0,0,1,.586-.746l10.71-8.819a5.623,5.623,0,0,1,3.464-1.332c3.011.24,4.956,2.691,6.98,4.636a78.185,78.185,0,0,0,107.532,0c.959-.932,1.918-1.972,2.957-2.851,5.435,2.052,7.007,5.2,6.368,8.632l-5.995-2.691-1.305,1.252,3.49,8.366.826-.8c-3.783,5.142-10.124,10.045-13.961,12.469A86.551,86.551,0,0,1,153.338,288.4c-22.753-.053-41.164-6.448-53.659-15.4-12.629-9.112-19.05-20.568-23.579-15.346ZM191.385,149.323V149.3h0v-.027h0a3.833,3.833,0,0,1,.639-2.185,4.967,4.967,0,0,1,1.6.879,6.183,6.183,0,0,1,2.025,6.394,5.814,5.814,0,0,0-1.359-1.705,4.935,4.935,0,0,1,1.492,4.316,2.142,2.142,0,0,0-1.625.32,2.349,2.349,0,0,0-.959,1.785,5.7,5.7,0,0,1-3.25-.746,6.151,6.151,0,0,0,1.972.879,6.1,6.1,0,0,1-6.661-.373,4.947,4.947,0,0,1-1.226-1.359,3.744,3.744,0,0,1,1.625-1.092c.133-.027.266-.08.4-.107l1.492-.32a6.262,6.262,0,0,1-.053-4.13,6.006,6.006,0,0,1,4-.986l-.107-1.519Zm.693,94.343-1.945-.24a9.114,9.114,0,0,0-.107-5.888,9.126,9.126,0,0,0-5.862-1.359l.133-2.051a5.354,5.354,0,0,0-1.039-3.17,7.268,7.268,0,0,0-2.158,1.226,8.383,8.383,0,0,0-2.371,8.925,7.425,7.425,0,0,1,1.758-2.371c-2.025,2.265-2.638,5.462-1.066,7.407s4.823,1.971,7.407.4a8.078,8.078,0,0,1-2.664,1.252,8.283,8.283,0,0,0,9.165-.586,6.888,6.888,0,0,0,1.625-1.892,5.263,5.263,0,0,0-2.877-1.652Zm15.24-18.7a5.015,5.015,0,0,1,2.9.48,6.69,6.69,0,0,1-.8,2.211,7.846,7.846,0,0,1-7.86,3.7,7.358,7.358,0,0,0,1.918-2.025,6.778,6.778,0,0,1-4.4,2.664,3.055,3.055,0,0,0-.613-1.652,3.371,3.371,0,0,0-3.384-.986,7.052,7.052,0,0,1,.187-4.716,8.009,8.009,0,0,0-.746,2.691,8,8,0,0,1-.906-8.685,7.659,7.659,0,0,1,1.492-1.838,4.733,4.733,0,0,1,1.972,2.424l.48,1.812a8.422,8.422,0,0,1,5.488-.932,8.471,8.471,0,0,1,2.131,5.169l1.945-.373c.08.08.133.08.187.053Zm6.261-21.874a4.568,4.568,0,0,1,2.824-.719,6.274,6.274,0,0,1,.107,2.238,7.54,7.54,0,0,1-5.462,6.128,7.252,7.252,0,0,0,.932-2.478,6.687,6.687,0,0,1-2.638,3.837,2.844,2.844,0,0,0-.986-1.039,3.327,3.327,0,0,0-3.517.426,6.591,6.591,0,0,1-1.625-4.263,6.9,6.9,0,0,0,.346,2.611,7.487,7.487,0,0,1-3.916-7.22,6.539,6.539,0,0,1,.613-2.131,4.526,4.526,0,0,1,2.584,1.385l.959,1.172a8.305,8.305,0,0,1,4.529-2.877,9.2,9.2,0,0,1,3.89,4.05l1.359-1.119Zm-1.332-21.234a4.205,4.205,0,0,1,2.238-1.545,6.1,6.1,0,0,1,.8,1.918,7.018,7.018,0,0,1-2.851,7.167,6.441,6.441,0,0,0,.027-2.478,6.124,6.124,0,0,1-1.332,4.5,2.679,2.679,0,0,0-1.652-.932,3.036,3.036,0,0,0-2.664,1.359,6.305,6.305,0,0,1-2.4-3.037,6.9,6.9,0,0,0,1.119,2.211,7.051,7.051,0,0,1-5.728-5.142,6.239,6.239,0,0,1-.133-2.1,4.347,4.347,0,0,1,2.718.4l1.492.56a7.153,7.153,0,0,1,2.984-3.73,7.077,7.077,0,0,1,4.316,1.972l1.066-1.119Zm-8.233-18.464v-.027h0a3.946,3.946,0,0,1,1.439-2.052,6.246,6.246,0,0,1,1.332,1.439,6.633,6.633,0,0,1-.107,7.22,6.057,6.057,0,0,0-.8-2.185,5.65,5.65,0,0,1,.32,4.423,2.333,2.333,0,0,0-1.519-.186,2.742,2.742,0,0,0-1.865,1.971,5.95,5.95,0,0,1-3.277-1.892,6.726,6.726,0,0,0,1.705,1.572,6.593,6.593,0,0,1-6.687-2.611,5.933,5.933,0,0,1-.8-1.785,4.429,4.429,0,0,1,1.465-.533,4.19,4.19,0,0,1,.986-.027h.027l1.785.213A6.579,6.579,0,0,1,199.4,164.7a6.436,6.436,0,0,1,4.423.32l.187-1.625Zm-27.975-23.233.826,1.119a7.817,7.817,0,0,0-4.023,2.078,7.1,7.1,0,0,0,1.732,3.89l-1.332.4a3.206,3.206,0,0,0-1.465,1.6,5.711,5.711,0,0,0,1.465.853,5.642,5.642,0,0,0,5.995-1.439,5.915,5.915,0,0,1-2-.266,5.083,5.083,0,0,0,3.3-.293,1.907,1.907,0,0,1,1.492-2.078h0a4.407,4.407,0,0,0-2.5-3.73,5.711,5.711,0,0,1,1.652,1.146,5.766,5.766,0,0,0-3.544-5.089,5.088,5.088,0,0,0-1.652-.346,3.41,3.41,0,0,0,.027,2.131.026.026,0,0,0,.027.027Zm38.18,118.668-.426-.213-2.425,2.345.773,1.732a16.126,16.126,0,0,0,2.078-3.863ZM88.356,256.508a3.255,3.255,0,0,0-.773,2.265,3.707,3.707,0,0,0,1.252,2.238,5.211,5.211,0,0,0,1.545,1.066,2.328,2.328,0,0,0,1.465.107,2.352,2.352,0,0,0,1.226-.693,2.325,2.325,0,0,0,.693-1.2,2.611,2.611,0,0,0-.08-1.279,8.381,8.381,0,0,0-.906-1.705,4.858,4.858,0,0,1-.746-1.492.563.563,0,0,1,.187-.533.634.634,0,0,1,.559-.186,1.892,1.892,0,0,1,1.039.586,1.8,1.8,0,0,1,.586.959,1.372,1.372,0,0,1-.32,1.012l1.279,1.119a2.468,2.468,0,0,0,.693-1.918A3.415,3.415,0,0,0,94.8,254.7a3.928,3.928,0,0,0-1.412-.933,2.186,2.186,0,0,0-1.359-.106,2.129,2.129,0,0,0-1.092.613,2.211,2.211,0,0,0-.613,1.758,4.388,4.388,0,0,0,.8,1.945,8.511,8.511,0,0,1,.719,1.225,1.291,1.291,0,0,1,.187.693.605.605,0,0,1-.24.479,1.079,1.079,0,0,1-.879.293,1.955,1.955,0,0,1-1.146-.613,1.818,1.818,0,0,1-.613-1.146,2.1,2.1,0,0,1,.426-1.305l-1.226-1.092ZM98.48,268.951l2.691-8.686-1.412-1.146-7.886,4.5,1.412,1.146,1.758-1.066,2.638,2.131-.639,1.945,1.439,1.172Zm-.32-4.556,1.066-3.171-2.851,1.732,1.785,1.439Zm1.945,5.568,1.439.933,3.81-5.888,2.1,1.359.773-1.2-5.622-3.65-.773,1.2,2.1,1.359-3.837,5.888Zm6.341,3.97,1.465.879,1.838-3.037,5.2-2.611-1.678-1.013-3.384,1.865.027-3.89-1.705-1.039.133,5.782-1.892,3.064Zm10.9,5.435.506-9.085-1.625-.773-6.581,6.261,1.652.773,1.439-1.439,3.064,1.439-.133,2.052,1.679.773ZM115.9,275l.266-3.33-2.371,2.371,2.1.959Zm11.856,7.913-.453-9.085-1.705-.586-5.861,6.927,1.705.586,1.279-1.6,3.2,1.092L126,282.3l1.758.613Zm-1.865-4.183-.08-3.357-2.1,2.584,2.185.773Zm4.769-4.1-2.052,8.206,3.117.773a4.872,4.872,0,0,0,1.519.186,2.9,2.9,0,0,0,1.332-.373,3.59,3.59,0,0,0,1.226-1.226,6.123,6.123,0,0,0,.693-1.678,6.227,6.227,0,0,0,.213-2A4.037,4.037,0,0,0,136.26,277a2.849,2.849,0,0,0-1.039-1.066,5.687,5.687,0,0,0-1.519-.533l-3.037-.773ZM132,276.437l-1.359,5.435,1.226.32a3.6,3.6,0,0,0,1.012.16,1.351,1.351,0,0,0,.746-.186,1.819,1.819,0,0,0,.64-.693,5.34,5.34,0,0,0,.533-1.465,4.969,4.969,0,0,0,.187-1.492,1.819,1.819,0,0,0-.266-.906,1.8,1.8,0,0,0-.666-.586,9.9,9.9,0,0,0-1.332-.426l-.719-.16Zm5.062,8.206,1.679.24.506-3.65,3.3.453-.506,3.65,1.678.24,1.172-8.366-1.679-.24-.453,3.3-3.3-.453.453-3.3-1.678-.24-1.172,8.366Zm8.366,1.012,1.705.16.746-8.419-1.705-.16-.746,8.419Zm7.807.346,1.838-.16,1.119-6.448,2.238,6.155,1.812-.16,1.306-8.606-1.705.16-.773,5.995-2-5.755-2.025.186L154,283.285l-1.785-5.675-1.732.16L153.232,286Zm9.885-.879,1.678-.24-1.172-8.366-1.678.24,1.172,8.366Zm8.046-4.5a2.52,2.52,0,0,1-.426,1.465,1.648,1.648,0,0,1-1.066.639,1.878,1.878,0,0,1-1.6-.373,3.7,3.7,0,0,1-1.012-2.132,3.4,3.4,0,0,1,.16-2.265,1.976,1.976,0,0,1,1.359-.959,1.8,1.8,0,0,1,1.2.16,1.588,1.588,0,0,1,.8.906l1.572-.719A3.118,3.118,0,0,0,171,275.984a3.524,3.524,0,0,0-2.638-.426,3.711,3.711,0,0,0-2.584,1.678,4.683,4.683,0,0,0-.453,3.437,4.441,4.441,0,0,0,1.652,2.877,3.645,3.645,0,0,0,2.931.613,3.576,3.576,0,0,0,2.078-1.092,3.7,3.7,0,0,0,.853-2.265l-1.678-.186Zm10.87.133-5.568-7.194-1.732.506-.826,9.032,1.732-.506.133-2.025,3.25-.932,1.226,1.652,1.785-.533Zm-3.943-2.345-1.972-2.691-.24,3.331,2.211-.639Zm4.769,2,1.572-.639-.959-2.371.746-1.838,3.65,2.8,2.052-.826-5.036-3.517,1.705-4.236-2.131.853-1.785,4.769-1.412-3.49-1.572.639,3.171,7.86Zm6.261-5.622a3.207,3.207,0,0,0,1.892,1.465,3.65,3.65,0,0,0,2.531-.453,4.547,4.547,0,0,0,1.492-1.119,2.4,2.4,0,0,0,.586-1.359,2.247,2.247,0,0,0-.266-1.385,2.343,2.343,0,0,0-.906-1.039,2.425,2.425,0,0,0-1.226-.346,7.967,7.967,0,0,0-1.918.293,4.506,4.506,0,0,1-1.652.213.614.614,0,0,1-.453-.346.577.577,0,0,1,0-.586,2.32,2.32,0,0,1,2-1.039,1.482,1.482,0,0,1,.853.613l1.492-.853a2.458,2.458,0,0,0-1.6-1.279,3.52,3.52,0,0,0-2.451.48,4.305,4.305,0,0,0-1.359,1.013,2.323,2.323,0,0,0-.559,1.252,2.217,2.217,0,0,0,1.678,2.425,4.607,4.607,0,0,0,2.1-.133c.719-.16,1.172-.266,1.385-.293a1.223,1.223,0,0,1,.719.053.89.89,0,0,1,.4.373,1.075,1.075,0,0,1,0,.906,1.748,1.748,0,0,1-.959.879,1.88,1.88,0,0,1-1.279.213,2.069,2.069,0,0,1-1.092-.826l-1.412.879Zm15.027-5.515-7.433-5.249-1.519.986,1.838,8.872,1.519-.986-.453-2,2.824-1.838,1.652,1.2,1.572-.986Zm-4.449-1.092-2.691-2,.746,3.25,1.945-1.252Zm5.249.693,1.226-.986-3.464-4.29,6.1,2.132,1.332-1.066-5.329-6.554-1.226.986,3.544,4.4-6.235-2.211-1.279,1.039,5.329,6.554Zm7.46-10.87-3.011-1.439,1.359,3.037Z" transform="translate(-55.824 -101.233)"/>
  <g id="Group_42" data-name="Group 42" transform="translate(31.752 152.363)">
    <path id="Path_49" data-name="Path 49" class="cls-2" d="M119.953,574.779a3.255,3.255,0,0,0-.773,2.265,3.7,3.7,0,0,0,1.252,2.237,5.191,5.191,0,0,0,1.545,1.066,2.586,2.586,0,0,0,3.384-1.785,2.615,2.615,0,0,0-.08-1.279,8.416,8.416,0,0,0-.906-1.705,4.866,4.866,0,0,1-.746-1.492.563.563,0,0,1,.187-.533.634.634,0,0,1,.56-.186,1.892,1.892,0,0,1,1.039.586,1.8,1.8,0,0,1,.586.959,1.372,1.372,0,0,1-.32,1.012l1.279,1.119a2.468,2.468,0,0,0,.693-1.919,3.416,3.416,0,0,0-1.252-2.158,3.928,3.928,0,0,0-1.412-.932,2.182,2.182,0,0,0-1.359-.107,2.132,2.132,0,0,0-1.092.613,2.211,2.211,0,0,0-.613,1.759,4.385,4.385,0,0,0,.8,1.945,8.574,8.574,0,0,1,.719,1.225,1.291,1.291,0,0,1,.187.693.607.607,0,0,1-.24.48,1.077,1.077,0,0,1-.879.293,1.953,1.953,0,0,1-1.146-.612,1.818,1.818,0,0,1-.613-1.146,2.1,2.1,0,0,1,.426-1.305l-1.226-1.093Z" transform="translate(-119.173 -571.866)"/>
    <path id="Path_50" data-name="Path 50" class="cls-2" d="M143.286,592.7l-7.886,4.5,1.412,1.146,1.758-1.065,2.638,2.131-.639,1.972,1.439,1.172,2.691-8.685Zm-1.625,5.249-1.785-1.439,2.851-1.7Z" transform="translate(-131.077 -587.149)"/>
    <path id="Path_51" data-name="Path 51" class="cls-2" d="M166.2,610.046l3.81-5.888-2.1-1.359.773-1.2,5.648,3.651-.8,1.2-2.078-1.359-3.837,5.888Z" transform="translate(-153.671 -593.678)"/>
    <path id="Path_52" data-name="Path 52" class="cls-2" d="M190,623.919l1.838-3.037-.133-5.782,1.705,1.039L193.384,620l3.411-1.839,1.678,1.013-5.2,2.585-1.812,3.037Z" transform="translate(-171.129 -603.581)"/>
    <path id="Path_53" data-name="Path 53" class="cls-2" d="M208.554,631.6,202,637.888l1.652.772,1.439-1.439,3.064,1.439-.133,2.051,1.678.8.506-9.085Zm-.293,5.488-2.078-.959,2.371-2.372Z" transform="translate(-179.932 -615.685)"/>
    <path id="Path_54" data-name="Path 54" class="cls-2" d="M247.467,646.186l-1.705-.586-5.861,6.927,1.705.586,1.279-1.6,3.2,1.093.08,2.051,1.758.613Zm-3.6,4.156,2.1-2.584.08,3.33Z" transform="translate(-207.734 -625.955)"/>
    <path id="Path_55" data-name="Path 55" class="cls-2" d="M281.3,654.763a4.028,4.028,0,0,0-.453-1.518,3.061,3.061,0,0,0-1.039-1.066,6.042,6.042,0,0,0-1.519-.533l-3.037-.746-2.052,8.206,3.117.772a4.867,4.867,0,0,0,1.519.187,2.891,2.891,0,0,0,1.332-.373,3.584,3.584,0,0,0,1.225-1.225,5.383,5.383,0,0,0,.693-1.678A6.31,6.31,0,0,0,281.3,654.763Zm-1.892,1.518a6.4,6.4,0,0,1-.533,1.466,1.82,1.82,0,0,1-.639.693,1.718,1.718,0,0,1-.746.187,3.926,3.926,0,0,1-1.012-.187l-1.226-.294,1.359-5.435.746.186a7.076,7.076,0,0,1,1.332.426,1.6,1.6,0,0,1,.666.586,1.822,1.822,0,0,1,.266.906A4.923,4.923,0,0,1,279.408,656.281Z" transform="translate(-232.162 -629.843)"/>
    <path id="Path_56" data-name="Path 56" class="cls-2" d="M304.9,665.366,306.073,657l1.7.24-.479,3.277,3.33.479.453-3.3,1.679.24-1.173,8.365-1.678-.239.506-3.651-3.3-.479-.506,3.677Z" transform="translate(-255.416 -634.318)"/>
    <path id="Path_57" data-name="Path 57" class="cls-2" d="M336.3,669.019l.719-8.419,1.705.133L338,669.152Z" transform="translate(-278.451 -636.958)"/>
    <path id="Path_58" data-name="Path 58" class="cls-2" d="M358.044,668.118l-2.744-8.259,1.732-.133,1.785,5.649,1.013-5.915,2.025-.16,2,5.755.772-5.995,1.705-.16-1.305,8.605-1.812.16L361,661.511l-1.119,6.448Z" transform="translate(-292.388 -635.711)"/>
    <path id="Path_59" data-name="Path 59" class="cls-2" d="M399.472,666.505,398.3,658.14l1.679-.239,1.172,8.366Z" transform="translate(-323.931 -634.979)"/>
    <path id="Path_60" data-name="Path 60" class="cls-2" d="M416.635,659.139l1.732.187a3.7,3.7,0,0,1-.853,2.265,3.952,3.952,0,0,1-5.009.48,4.333,4.333,0,0,1-1.652-2.878,4.68,4.68,0,0,1,.453-3.437,3.681,3.681,0,0,1,2.584-1.679,3.52,3.52,0,0,1,2.637.426,3.457,3.457,0,0,1,1.146,1.359l-1.572.719a1.912,1.912,0,0,0-.8-.905,1.971,1.971,0,0,0-2.558.8,3.381,3.381,0,0,0-.16,2.265,3.544,3.544,0,0,0,1.012,2.131,1.794,1.794,0,0,0,1.6.373,1.648,1.648,0,0,0,1.066-.64,3.342,3.342,0,0,0,.373-1.465Z" transform="translate(-333.049 -632.114)"/>
    <path id="Path_61" data-name="Path 61" class="cls-2" d="M445.657,646.9l-1.732.506-.826,9.032,1.732-.506.133-2.024,3.25-.933,1.226,1.652,1.785-.506Zm-.559,5.462.24-3.33,2,2.691Z" transform="translate(-356.796 -626.908)"/>
    <path id="Path_62" data-name="Path 62" class="cls-2" d="M468.143,643.23,465,635.4l1.572-.639,1.412,3.491,1.785-4.769,2.131-.88-1.732,4.263,5.036,3.517-2.025.826-3.65-2.8-.746,1.811.959,2.371Z" transform="translate(-372.861 -616.419)"/>
    <path id="Path_63" data-name="Path 63" class="cls-2" d="M496,631.282l1.412-.906a2.173,2.173,0,0,0,1.092.826,1.881,1.881,0,0,0,1.279-.214,1.955,1.955,0,0,0,.959-.879,1.074,1.074,0,0,0,0-.906.689.689,0,0,0-.4-.373,1.442,1.442,0,0,0-.719-.053c-.213.027-.666.133-1.385.293a4.6,4.6,0,0,1-2.105.133,2.218,2.218,0,0,1-1.678-2.424,2.41,2.41,0,0,1,.559-1.252,4.311,4.311,0,0,1,1.359-1.013,3.672,3.672,0,0,1,2.451-.479,2.382,2.382,0,0,1,1.6,1.279l-1.492.852a1.409,1.409,0,0,0-.853-.613,2.324,2.324,0,0,0-2,1.039.58.58,0,0,0,0,.586.614.614,0,0,0,.453.346,4.5,4.5,0,0,0,1.652-.212,7.961,7.961,0,0,1,1.918-.293,2.419,2.419,0,0,1,1.226.346,2.345,2.345,0,0,1,.906,1.039,2.5,2.5,0,0,1,.266,1.386,2.4,2.4,0,0,1-.586,1.358,5.309,5.309,0,0,1-1.492,1.119,3.646,3.646,0,0,1-2.531.453A3.056,3.056,0,0,1,496,631.282Z" transform="translate(-394.456 -610.091)"/>
    <path id="Path_64" data-name="Path 64" class="cls-2" d="M524.619,611l-1.519.986,1.839,8.872,1.519-.986-.453-2,2.825-1.838,1.679,1.2,1.545-1.013Zm1.039,5.409-.746-3.251,2.691,2Z" transform="translate(-415.481 -600.574)"/>
    <path id="Path_65" data-name="Path 65" class="cls-2" d="M545.029,599.49l1.225-1.013-3.463-4.289,6.1,2.158,1.332-1.093-5.3-6.554-1.252.986,3.57,4.4-6.262-2.212L539.7,592.91Z" transform="translate(-427.658 -584.215)"/>
    <path id="Path_66" data-name="Path 66" class="cls-2" d="M570.105,575.2l-1.3,1.252,3.49,8.366,1.306-1.252-.826-1.865,2.425-2.345,1.865.879,1.332-1.306Zm2.078,5.115-1.359-3.037,3.01,1.439Z" transform="translate(-449.006 -574.312)"/>
  </g>
  <path id="Path_67" data-name="Path 67" class="cls-1" d="M415.346,139.82c.373-1.012,1.785-1.412,3.25-.986a1.8,1.8,0,0,0-1.173,1.012c-.4,1.092.533,2.451,2.1,3.064a4.052,4.052,0,0,0,1.226.266c0,.053.027.107.027.16a3.055,3.055,0,0,1-1.359-.186h0c.027,0,.053-.027.106-.027-.053,0-.08.027-.133.027a4.462,4.462,0,0,1-.613-.32c.053.133.107.24.16.373a4.31,4.31,0,0,1-1.492-.266c-1.572-.666-2.5-2.025-2.1-3.117Zm42.842,50.3c1.572.187,2.637,2.132,2.371,4.316a5.637,5.637,0,0,1-.266,1.2,1.48,1.48,0,0,0-.186-.24,3.02,3.02,0,0,1,0,.693,4.837,4.837,0,0,1-.533.879,5.386,5.386,0,0,0,.133-.639c.346-2.185-.613-4.183-2.158-4.423a2.734,2.734,0,0,0-2.558,1.252c.453-1.865,1.785-3.2,3.2-3.037ZM459.573,197a4.548,4.548,0,0,1-.719,1.492c.027.027.054.053.08.053a3.628,3.628,0,0,0,1.119-2.025c-.16.187-.32.32-.48.48Zm.88-1.092a3.936,3.936,0,0,1-.16,4.023.375.375,0,0,1,.08.107,3.358,3.358,0,0,0,.826-1.545h.08a3.028,3.028,0,0,1,1.918,1.2,5.586,5.586,0,0,1,.959-.08h.24a2.413,2.413,0,0,1,.613.08,3.365,3.365,0,0,0-2.8-3.171h-.08a3.319,3.319,0,0,1-1.252,2.078,3.643,3.643,0,0,0,.932-2.1,3.756,3.756,0,0,0-.932-2.984,3.072,3.072,0,0,1,0,.986,3.234,3.234,0,0,1-.426,1.412ZM449.4,197.636a3.336,3.336,0,0,1,3.384-2.238h.08v.107a3.9,3.9,0,0,0-.239,3.757,3.319,3.319,0,0,1-.64-2.344.1.1,0,0,1-.08-.027,3.175,3.175,0,0,0-2.5.746ZM453.258,195a3.578,3.578,0,0,1,1.519-2.211,5.046,5.046,0,0,0-.24.959c0,.08-.026.16-.026.24a5.8,5.8,0,0,0-.427,1.412,5.143,5.143,0,0,0,.267,2.744,3.72,3.72,0,0,1-.64-2.8,4.787,4.787,0,0,1,.267-.933,2.9,2.9,0,0,0-.72.586Zm-6.5,34.822c1.119,1.385.506,3.81-1.412,5.355a6.233,6.233,0,0,1-1.758,1.013,1.3,1.3,0,0,0,.026-.32c-.133.16-.266.293-.4.453a5.877,5.877,0,0,1-.666.133,2.9,2.9,0,0,0,.48.027c-.08.053-.133.107-.213.16a4.174,4.174,0,0,1-1.919.8c0-.08-.026-.16-.026-.24a5.765,5.765,0,0,0,1.7-.879c1.972-1.465,2.718-3.837,1.652-5.275a2.96,2.96,0,0,0-2.744-1.039c1.865-1.439,4.183-1.518,5.275-.186Zm-3.224,6.581a4.147,4.147,0,0,1-1.6,2.5,4.218,4.218,0,0,1-1.012.56c0,.08-.027.16-.027.266a3.078,3.078,0,0,0,1.252-.533c.027.027.027.053.053.08a3.677,3.677,0,0,1,.666,1.865,4.889,4.889,0,0,1,1.466,1.066c.053.053.08.106.133.16.027.027.053.053.053.08a4.185,4.185,0,0,1,.427.533,3.779,3.779,0,0,0,.159-4.769c-.027-.027-.027-.053-.053-.08a3.7,3.7,0,0,1-2.611.666,4.209,4.209,0,0,0,3.89-4.1,4.235,4.235,0,0,1-.746.8,3.95,3.95,0,0,1-2.051.906Zm-8.473-4.476c-.027-.107-.027-.213-.054-.32a3.626,3.626,0,0,1,.826-.986c-.027-.027-.027-.053-.053-.08a3.344,3.344,0,0,0-1.919-1.279,2.4,2.4,0,0,0-.24-.267,3.711,3.711,0,0,1,4.663.773c.027.027.027.053.053.08a2.5,2.5,0,0,0-.267.266,4.268,4.268,0,0,0-2.025.8,4.422,4.422,0,0,0-.986,1.012Zm3.57-1.838a4.119,4.119,0,0,1,.826.107,5.743,5.743,0,0,0-.959.533,4.174,4.174,0,0,0-1.652,2.771,5.411,5.411,0,0,1,1.892-2.425,5.632,5.632,0,0,1,1.971-.959,2.611,2.611,0,0,1,.293-.266,4.965,4.965,0,0,1,.932-.586,3.928,3.928,0,0,0-3.3.826Zm18.117-19.476c1.466.826,1.705,3.17.586,5.222a6.306,6.306,0,0,1-1.012,1.306,1.758,1.758,0,0,0-.106-.346,3,3,0,0,1-.293.666,3.521,3.521,0,0,1-.666.426,2.826,2.826,0,0,0,.506-.187h0a3.982,3.982,0,0,1-1.679,1.519l-.08-.16a5.5,5.5,0,0,0,1.439-1.572c1.226-1.972,1.092-4.343-.32-5.222a2.76,2.76,0,0,0-2.824.08c1.2-1.732,3.117-2.5,4.449-1.732Zm-.373,6.794a3.9,3.9,0,0,1-.586,2.664,4.347,4.347,0,0,1-.932,1.039c.027.053.027.133.053.187a3.056,3.056,0,0,0,1.145-1.039c.027.027.053.027.08.053a3.137,3.137,0,0,1,1.306,1.678,4.453,4.453,0,0,1,1.332.4l.16.08c.026,0,.053.027.08.027.213.107.373.213.559.32a3.573,3.573,0,0,0-1.465-4.263c-.027-.027-.053-.027-.08-.053a3.372,3.372,0,0,1-2.078,1.492,3.945,3.945,0,0,0,1.785-1.652,4.033,4.033,0,0,0,.293-3.3,3.336,3.336,0,0,1-.4.959,3.784,3.784,0,0,1-1.252,1.412Zm-9.059-.64a1.071,1.071,0,0,0-.133-.24,3.32,3.32,0,0,1,.426-1.652c-.027-.027-.053-.027-.08-.053a3.233,3.233,0,0,0-2.611-.373h-.027a3.5,3.5,0,0,1,4.37-.932c.027.027.053.027.08.053l-.08.16a4.388,4.388,0,0,0-1.385,1.332,4.439,4.439,0,0,0-.56,1.705Zm2.5-3.3a3.147,3.147,0,0,1,.826-.213,4.835,4.835,0,0,0-.666.8,3.963,3.963,0,0,0-.506,3.011,5.246,5.246,0,0,1,.852-2.8,5.873,5.873,0,0,1,1.252-1.412c.027-.08.08-.133.107-.213a3.915,3.915,0,0,1,.612-.826,3.6,3.6,0,0,0-2.478,1.652Zm3.756-41.856c1.439-.346,2.984,1.039,3.464,3.064.027.08.027.133.054.213a2.356,2.356,0,0,0-2.025-.959c-1.439.16-2.451,1.918-2.265,3.943-.107-.16-.24-.32-.346-.48,0-.107.027-.213.027-.293l-.133.133a5.07,5.07,0,0,1-.479-1.306c-.506-2.051.266-4,1.7-4.316Zm3.864,3.81a5.048,5.048,0,0,1,.613,1.971,4.751,4.751,0,0,1-.16,1.865c.053.027.08.053.133.08a3.656,3.656,0,0,0,.133-2.877,3.184,3.184,0,0,1,.692.639,3.427,3.427,0,0,0-.08-1.039,3.462,3.462,0,0,0-1.758-2.318,4.265,4.265,0,0,1,.319.879,2.513,2.513,0,0,1,.107.8Zm1.6,1.865a3.2,3.2,0,0,0,.053-1.332.1.1,0,0,0,.08-.027,3.145,3.145,0,0,1,3.463,1.892,2.138,2.138,0,0,0-.56.133c-.027,0-.053.027-.08.027-.053.027-.107.027-.16.053a3.891,3.891,0,0,0-1.492.879,1.3,1.3,0,0,0-.32.027h-.08v.4a3.539,3.539,0,0,0-.293.373,3.259,3.259,0,0,0,0-.719,3.966,3.966,0,0,0-.613-1.705Zm-5.622,2.664a4.777,4.777,0,0,1-.639-2,4.084,4.084,0,0,1-.347-.32,1.288,1.288,0,0,0,.027.32,3.629,3.629,0,0,0,.906,2.078c0-.027.026-.053.053-.08Zm-1.145,1.732a.026.026,0,0,1-.027.027,3.1,3.1,0,0,1-1.013-1.838h-.08a2.786,2.786,0,0,0-2,1.2.24.24,0,0,0-.133.027c-.053,0-.107.027-.16.027h-.08a4.247,4.247,0,0,0-.559.133A3.111,3.111,0,0,1,450.461,178a.1.1,0,0,0,.08-.027,2.894,2.894,0,0,0,.959,1.465,1.521,1.521,0,0,0,.027.346,3.644,3.644,0,0,0,.746,1.892Zm-.746-2.345a3.484,3.484,0,0,1,.666-1.945,3.646,3.646,0,0,1-.666-1.412,3.705,3.705,0,0,1-.107-.933,3.561,3.561,0,0,0-.56,2.877,4.074,4.074,0,0,0,.666,1.412Zm-8.259-22.593c1.039-.693,2.611-.187,3.7,1.119a1.9,1.9,0,0,0-1.092.053c-1.279.48-1.785,2.371-1.092,4.183a4.412,4.412,0,0,0,1.2,1.812c0,.027-.027.027-.027.053a3.359,3.359,0,0,1-1.305-1.412c.107.027.24.08.346.107a3.216,3.216,0,0,1-.426-.213c-.027-.08-.053-.133-.08-.213a3.261,3.261,0,0,1-.186-.853,2.9,2.9,0,0,0-.266.666,4.981,4.981,0,0,1-.853-.959c-1.092-1.652-1.039-3.6.08-4.343Zm4.236,1.305a5.84,5.84,0,0,0-.533-.613,3.327,3.327,0,0,1,2.318,1.465,4.693,4.693,0,0,1,.373.72c-.107-.053-.214-.107-.347-.16a3.509,3.509,0,0,1,.4.773c.053.187.107.346.16.533v.027a3.161,3.161,0,0,1,0,1.226c-.053,0-.107-.027-.16-.027a4.606,4.606,0,0,0-.293-1.652,4.178,4.178,0,0,0-1.918-2.291Zm2.371,1.732a3.373,3.373,0,0,1,1.332,1.678c.026.08.053.133.08.213a4.047,4.047,0,0,1,1.305-1.972c.027-.027.08-.053.107-.08l.054-.053a2.615,2.615,0,0,1,.453-.293,2.846,2.846,0,0,0-3.624-.533c-.026,0-.026.027-.053.027a2.861,2.861,0,0,1,.346,1.013Zm-7.833,7.007a2.806,2.806,0,0,1,1.731-2.558.094.094,0,0,0,.053-.027,2.868,2.868,0,0,0,1.492,1.519,3.122,3.122,0,0,1-1.119-1.359,2.917,2.917,0,0,1-1.439-1.039c-.027,0-.027.027-.053.027a2.912,2.912,0,0,0-.879,3.6,1.487,1.487,0,0,0,.214-.16Zm2.131-2.531c-.027-.053-.027-.107-.053-.133a3.47,3.47,0,0,1-.16-1.865,3.137,3.137,0,0,1-1.039-1.013,4.239,4.239,0,0,1-.4-.773,3.268,3.268,0,0,0,.48,2.718,3.429,3.429,0,0,0,1.172,1.066Zm-14.068-18.2c.773-1.013,2.558-.906,4,.213a4.089,4.089,0,0,1,.506.453,2.163,2.163,0,0,0-2.291.373c-.8.8-.613,2.318.373,3.543a4.7,4.7,0,0,1-1.385-.746c-1.412-1.092-1.945-2.824-1.2-3.836Zm4.956.852a4.509,4.509,0,0,1,1.2.853,4.931,4.931,0,0,1,.853,1.146c.053,0,.107-.027.16-.027a3.33,3.33,0,0,0-.8-1.306,2.869,2.869,0,0,0-.639-.479,2.771,2.771,0,0,1,1.039.106,3.414,3.414,0,0,0-.826-.932,3.022,3.022,0,0,0-2.451-.613,2.7,2.7,0,0,1,.693.426,2.537,2.537,0,0,1,.773.826Zm1.945.32a2.713,2.713,0,0,0-.8-1.172c0-.027.027-.027.027-.053a2.649,2.649,0,0,1,3.357-.586,2.01,2.01,0,0,0-.293.373c0,.027-.027.027-.027.053-.026.027-.053.08-.08.107a3.451,3.451,0,0,0-.533,1.572.809.809,0,0,0-.213.213l-.053.053.239.32c0,.16.027.32.027.426a2.958,2.958,0,0,0-.453-.559,3.348,3.348,0,0,0-1.2-.746Zm-2.4,4.822v.107a3.012,3.012,0,0,1-1.732-.879c-.16-.16-.293-.346-.426-.506a2.054,2.054,0,0,0,.4.053l.239.24a4.14,4.14,0,0,0,1.519.986Zm0,1.732a3.326,3.326,0,0,1-1.305-.773,3.878,3.878,0,0,1-.426-.506,2.674,2.674,0,0,1-1.252-.48c-.027.027-.027.027-.027.053a2.68,2.68,0,0,0,.293,3.41,3.805,3.805,0,0,1,.293-.4l.053-.053c.026-.027.053-.08.08-.107l.133-.133a2.338,2.338,0,0,1,.667-1.572l.053-.053a2.952,2.952,0,0,0,1.252.639c.053,0,.133-.027.186-.027Zm-1.812-1.439a2.975,2.975,0,0,1-.426-1.625,3.254,3.254,0,0,1-1.226-.586,3.7,3.7,0,0,1-.56-.56,3.045,3.045,0,0,0,1.225,2.238,2.964,2.964,0,0,0,.986.533ZM419.076,138.7a4.213,4.213,0,0,1,1.945.24,3.919,3.919,0,0,1,1.7,1.226,2.664,2.664,0,0,0-.906-1.066,1.694,1.694,0,0,1,.213.373,2.793,2.793,0,0,0-.533-.586c-.134-.053-.24-.133-.373-.187a3.588,3.588,0,0,0-.719-.187c.08-.053.186-.08.266-.133h0a2.851,2.851,0,0,0-2.345.106,2.389,2.389,0,0,1,.719.187c0,.027,0,.027.027.027Zm1.918-.4a3.071,3.071,0,0,1,1.759.106,3.315,3.315,0,0,1,.533.267c0-.08-.027-.16-.027-.267-.133-.08-.266-.16-.426-.24,0-.027,0-.027.027-.053a2,2,0,0,1,.479-.746c0-.027.026-.053.026-.08,0-.053.026-.08.026-.133,0-.027,0-.027.027-.053.053-.16.106-.293.16-.426a2.477,2.477,0,0,0-2.824,1.412c0,.027-.026.027-.026.053.106.08.186.107.266.16Zm.24,6.341a2.723,2.723,0,0,1-.773-.187,3.018,3.018,0,0,0-3.117-1.305,3.175,3.175,0,0,1-.666-.346,2.853,2.853,0,0,0,1.679,1.652,3.007,3.007,0,0,0,1.732.133,2.642,2.642,0,0,1-1.812.107c0,.027-.027.027-.027.053a2.484,2.484,0,0,0,1.2,2.931,1.389,1.389,0,0,1,.16-.426c0-.027.027-.027.027-.053.026-.027.026-.08.054-.106a2.9,2.9,0,0,1,.639-.906,2.323,2.323,0,0,1,.027-1.412c0-.027.027-.027.027-.053a2.193,2.193,0,0,0,.932.107A1.322,1.322,0,0,0,421.234,144.643Z" transform="translate(-304.616 -100.229)"/>
</svg>
