<svg xmlns="http://www.w3.org/2000/svg" viewBox="0 0 24.021 24">
  <g id="ic_email" transform="translate(-3.99 -3.999)">
    <path id="Path_85" data-name="Path 85" d="M16.192,4a12,12,0,1,0,7.315,21.383l-1.25-1.563A10,10,0,1,1,16.161,6a10.121,10.121,0,0,1,9.848,9.691c0,.113,0,.223,0,.344a3.985,3.985,0,0,1-4,3.97,1.985,1.985,0,0,1-2-2V10h-2v.782A4.432,4.432,0,0,0,15.5,10,4.518,4.518,0,0,0,11,14.5v3a4.478,4.478,0,0,0,7.878,2.939,3.99,3.99,0,0,0,3.126,1.563,6.017,6.017,0,0,0,6-5.971c0-.133,0-.262,0-.406A12.1,12.1,0,0,0,16.192,4ZM15.5,12a2.488,2.488,0,0,1,2.5,2.5v3a2.5,2.5,0,1,1-5,0v-3A2.488,2.488,0,0,1,15.5,12Z" transform="translate(0)"/>
  </g>
</svg>
