<svg xmlns="http://www.w3.org/2000/svg" viewBox="0 0 28 28">
  <defs>
    <style>
      .cls-1 {
        opacity: 0.5;
      }
    </style>
  </defs>
  <g id="ic_fb" class="cls-1" transform="translate(-5 -5)">
    <path id="Path_77" data-name="Path 77" d="M7.545,5A2.563,2.563,0,0,0,5,7.545V30.455A2.563,2.563,0,0,0,7.545,33H30.455A2.563,2.563,0,0,0,33,30.455V7.545A2.563,2.563,0,0,0,30.455,5Zm0,2.545H30.455V30.455h-6.6V21.864h3.3l.477-3.818H23.852V15.58c0-1.114.273-1.869,1.869-1.869H27.79V10.25c-.353-.045-1.576-.119-2.983-.119-2.933,0-4.932,1.765-4.932,5.051v2.864H16.534v3.818h3.341v8.591H7.545Z"/>
  </g>
</svg>
