<svg xmlns="http://www.w3.org/2000/svg" viewBox="0 0 28 28">
  <defs>
    <style>
      .cls-1 {
        opacity: 0.5;
      }
    </style>
  </defs>
  <g id="ic_linkedin" class="cls-1" transform="translate(-5 -5)">
    <path id="Path_79" data-name="Path 79" d="M8.182,5A3.2,3.2,0,0,0,5,8.182V29.818A3.2,3.2,0,0,0,8.182,33H29.818A3.2,3.2,0,0,0,33,29.818V8.182A3.2,3.2,0,0,0,29.818,5Zm0,2.545H29.818a.622.622,0,0,1,.636.636V29.818a.622.622,0,0,1-.636.636H8.182a.622.622,0,0,1-.636-.636V8.182A.622.622,0,0,1,8.182,7.545ZM11.92,9.733a2.188,2.188,0,1,0,2.188,2.188A2.188,2.188,0,0,0,11.92,9.733ZM23.415,15.54a3.925,3.925,0,0,0-3.54,1.949H19.8v-1.67h-3.58V27.909h3.739V21.943c0-1.576.313-3.1,2.267-3.1,1.924,0,1.949,1.78,1.949,3.182v5.886h3.739V21.267C27.909,18.016,27.218,15.54,23.415,15.54Zm-13.324.278V27.909h3.778V15.818Z"/>
  </g>
</svg>
