<svg xmlns="http://www.w3.org/2000/svg" viewBox="0 0 22.154 24">
  <g id="ic_lokasi" transform="translate(-4 -3)">
    <path id="Path_83" data-name="Path 83" d="M15.077,3A6.474,6.474,0,0,0,8.615,9.462a8.916,8.916,0,0,0,.952,3.4,38.513,38.513,0,0,0,1.933,3.75c1.406,2.423,2.827,4.442,2.827,4.442l.75,1.1.75-1.1s1.421-2.019,2.827-4.442a38.534,38.534,0,0,0,1.933-3.75,8.917,8.917,0,0,0,.952-3.4A6.474,6.474,0,0,0,15.077,3Zm0,1.846a4.6,4.6,0,0,1,4.615,4.615,8.319,8.319,0,0,1-.779,2.654,38.079,38.079,0,0,1-1.875,3.577c-.988,1.706-1.493,2.445-1.962,3.144-.469-.7-.974-1.439-1.962-3.144a38.056,38.056,0,0,1-1.875-3.577,8.318,8.318,0,0,1-.779-2.654A4.6,4.6,0,0,1,15.077,4.846Zm0,2.769a1.846,1.846,0,1,0,1.846,1.846A1.845,1.845,0,0,0,15.077,7.615Zm-4.7,10.558C6.8,18.822,4,20.243,4,22.385,4,25.414,9.571,27,15.077,27s11.077-1.586,11.077-4.615c0-2.142-2.8-3.563-6.375-4.212l-1.125,1.7c3.487.5,5.654,1.669,5.654,2.51,0,1.1-3.682,2.769-9.231,2.769s-9.231-1.666-9.231-2.769c0-.84,2.167-2,5.654-2.51Z"/>
  </g>
</svg>
