<svg xmlns="http://www.w3.org/2000/svg" viewBox="0 0 99.976 100">
  <defs>
    <style>
      .cls-1 {
        opacity: 0.3;
      }

      .cls-2 {
        fill: #fff;
      }
    </style>
  </defs>
  <g id="ic_misi" class="cls-1" transform="translate(-2.188 -4)">
    <path id="Path_82" data-name="Path 82" class="cls-2" d="M94.076,4c-2.694,0-6.447.121-10.412.484-7.93.742-17.086,2.073-22.76,7.748C56.137,17,46.286,29.651,37.176,41.53c-1.8,2.346-1.726,2.3-3.39,4.48l-6.659-.363a15.425,15.425,0,0,0-12.833,5.69L6.183,61.264l-4,5.085,6.3,1.211L21.195,70.1,36.086,84.993,38.628,97.7,39.96,104l4.964-3.995,9.927-8.112a15.426,15.426,0,0,0,5.69-12.833l-.363-6.538c2.255-1.71,2.179-1.665,4.6-3.511C76.688,59.887,89.385,50.1,94.076,45.4c5.629-5.629,6.885-14.921,7.627-22.881a111.663,111.663,0,0,0,.363-14.77l-.121-3.511-3.511-.121S96.77,4,94.076,4Zm-3.511,7.748c1.543,0,2.633.091,3.753.121a72.1,72.1,0,0,1-.363,9.927c-.681,7.34-2.921,15.512-5.448,18.039-3.451,3.45-16.586,13.907-28.451,23C49.57,70.873,42.184,76.518,40.081,78.092L28.217,66.228c1.589-2.134,7.022-9.549,15.012-19.976C52.309,34.418,62.8,21.237,66.352,17.68,69,15.032,77.081,12.792,84.391,12.111,87.039,11.869,89.022,11.748,90.565,11.748ZM72.89,25.429a7.87,7.87,0,0,0,0,15.739,7.869,7.869,0,1,0,0-15.739ZM26.643,53.395l1.453.121c-2.33,3.087-6.144,8.036-6.659,8.717l-5.206-1.09,4-4.843A7.754,7.754,0,0,1,26.643,53.395ZM17.8,73.492c-3.314,3.314-5.206,7.9-6.538,11.744A55.851,55.851,0,0,0,9.33,92.257L8.12,97.947l5.69-1.089a51.13,51.13,0,0,0,6.9-1.816c3.814-1.286,8.4-3.193,11.865-6.658l-5.448-5.448c-1.725,1.725-5.145,3.238-8.232,4.358,1.18-3.223,2.906-6.885,4.358-8.353Zm34.867,4.6.121,1.453a7.612,7.612,0,0,1-2.784,6.417l-4.964,3.995-1.089-5.206C44.636,84.251,49.585,80.408,52.672,78.092Z" transform="translate(0)"/>
  </g>
</svg>
