<svg xmlns="http://www.w3.org/2000/svg" viewBox="0 0 34.448 28">
  <defs>
    <style>
      .cls-1 {
        opacity: 0.5;
      }
    </style>
  </defs>
  <g id="ic_twitter" class="cls-1" transform="translate(-4 -6.246)">
    <path id="Path_78" data-name="Path 78" d="M38.448,9.565a14.084,14.084,0,0,1-4.059,1.11,7.091,7.091,0,0,0,3.106-3.908,14.239,14.239,0,0,1-4.485,1.716,7.069,7.069,0,0,0-12.228,4.833,6.911,6.911,0,0,0,.185,1.609A20.033,20.033,0,0,1,6.4,7.541a7.071,7.071,0,0,0,2.187,9.436,7.027,7.027,0,0,1-3.2-.886v.09a7.064,7.064,0,0,0,5.668,6.93,7.035,7.035,0,0,1-1.861.252,6.89,6.89,0,0,1-1.329-.129,7.079,7.079,0,0,0,6.6,4.912,14.175,14.175,0,0,1-8.775,3.022A14.012,14.012,0,0,1,4,31.067a19.986,19.986,0,0,0,10.832,3.179c13,0,20.111-10.771,20.111-20.111,0-.3-.011-.611-.022-.914A14.477,14.477,0,0,0,38.448,9.565Z" transform="translate(0 0)"/>
  </g>
</svg>
