<svg xmlns="http://www.w3.org/2000/svg" viewBox="0 0 24.027 24">
  <g id="ic_telepon" transform="translate(-2.972 -3)">
    <path id="Path_84" data-name="Path 84" d="M8.214,3a2.172,2.172,0,0,0-1.354.49L6.8,3.519l-.029.029L3.891,6.516l.029.029a2.89,2.89,0,0,0-.778,3.112c0,.007,0,.022,0,.029A28.955,28.955,0,0,0,9.827,20.146a30.455,30.455,0,0,0,10.46,6.685h.029a3.31,3.31,0,0,0,3.2-.634l2.911-2.911a2.063,2.063,0,0,0,0-2.853L22.68,16.688l-.029-.058a2.1,2.1,0,0,0-2.882,0l-1.844,1.844a14.917,14.917,0,0,1-3.775-2.594,11.718,11.718,0,0,1-2.565-3.746l1.844-1.844A1.968,1.968,0,0,0,13.4,7.467l.029-.029-.086-.086-3.689-3.8-.029-.029L9.568,3.49A2.172,2.172,0,0,0,8.214,3Zm0,1.844a.323.323,0,0,1,.2.086L12.1,8.706l.086.086a.181.181,0,0,1-.058.2L9.827,11.3l-.432.4.2.576a14.95,14.95,0,0,0,3.285,4.956l.2.173a18.58,18.58,0,0,0,4.668,3.026l.576.259,2.738-2.738c.158-.159.13-.159.288,0l3.775,3.775c.159.159.159.1,0,.259l-2.824,2.824a1.342,1.342,0,0,1-1.412.259,28.438,28.438,0,0,1-9.769-6.224,27.351,27.351,0,0,1-6.253-9.8,1.171,1.171,0,0,1,.288-1.21l.058-.058,2.8-2.853A.323.323,0,0,1,8.214,4.844Z"/>
  </g>
</svg>
