<svg xmlns="http://www.w3.org/2000/svg" viewBox="0 0 100 100">
  <defs>
    <style>
      .cls-1 {
        opacity: 0.3;
      }

      .cls-2 {
        fill: #fff;
      }
    </style>
  </defs>
  <g id="ic_visi" class="cls-1" transform="translate(-3 -3)">
    <path id="Path_81" data-name="Path 81" class="cls-2" d="M53,3A50.083,50.083,0,1,0,95.548,26.8L89.9,32.447A41.762,41.762,0,0,1,95.308,53,42.308,42.308,0,1,1,53,10.692,41.764,41.764,0,0,1,73.553,16.1L79.2,10.452A49.631,49.631,0,0,0,53,3ZM96.39,4.082,50.236,50.236A3.907,3.907,0,0,0,49.154,53,3.853,3.853,0,0,0,53,56.846a3.91,3.91,0,0,0,2.765-1.082L101.918,9.611ZM53,18.385A34.6,34.6,0,1,0,84.25,38.1l-5.889,5.89A26.952,26.952,0,1,1,62.015,27.639L67.9,21.75A34.417,34.417,0,0,0,53,18.385Zm0,15.385A19.693,19.693,0,1,0,71.99,50.356L61.173,61.173a11.675,11.675,0,0,1-3.485,2.4c-.06.03-.18-.03-.24,0a11.253,11.253,0,0,1-1.683.6c-.135.03-.346.09-.481.12a11.543,11.543,0,0,1-2.284.24,11.3,11.3,0,0,1-4.447-.962A11.37,11.37,0,0,1,41.7,50.717c.03-.135.09-.346.12-.481a11.18,11.18,0,0,1,.6-1.683c.03-.06-.03-.18,0-.24a11.486,11.486,0,0,1,2.4-3.486L55.644,34.01A19.249,19.249,0,0,0,53,33.769Z"/>
  </g>
</svg>
