<svg xmlns="http://www.w3.org/2000/svg" viewBox="0 0 100 100">
  <defs>
    <style>
      .cls-1 {
        opacity: 0.3;
      }

      .cls-2 {
        fill: #fff;
      }
    </style>
  </defs>
  <g id="lelang" class="cls-1">
    <path id="Path_74" data-name="Path 74" class="cls-2" d="M51.511,2.293,48.867,4.937V4.921l-27.682,27.7-2.644,2.644,5.564,5.564,2.644-2.643L44.794,56.228l-40.5,40.5,5.564,5.564,40.5-40.5L68.4,79.837l-2.643,2.644,5.564,5.564,32.97-32.97-5.564-5.564-2.644,2.643L54.431,10.5l2.643-2.644ZM48.867,16.065l6.24,6.24L38.554,38.859l-6.24-6.24Zm11.8,11.8L78.716,45.914,62.163,62.468,44.118,44.423ZM84.281,51.479l6.24,6.24L73.967,74.273l-6.24-6.24Z" transform="translate(-4.293 -2.293)"/>
  </g>
</svg>
