<svg xmlns="http://www.w3.org/2000/svg" viewBox="0 0 112 72">
  <defs>
    <style>
      .cls-1 {
        opacity: 0.3;
      }

      .cls-2 {
        fill: #fff;
      }
    </style>
  </defs>
  <g id="tilang" class="cls-1">
    <path id="Path_73" data-name="Path 73" class="cls-2" d="M2,7V79H58a11.948,11.948,0,0,0,8-3.141A11.948,11.948,0,0,0,74,79h40V7H74a11.887,11.887,0,0,0-8,3.156A11.887,11.887,0,0,0,58,7Zm8,8H58a3.93,3.93,0,0,1,4,4v4h8V19a3.93,3.93,0,0,1,4-4h32V71H74a3.93,3.93,0,0,1-4-4V63H62v4a3.93,3.93,0,0,1-4,4H10Zm68,8.062V43H98V23.062ZM18,31v8H54V31Zm44,0v8h8V31ZM18,47v8H54V47Zm44,0v8h8V47Zm16,8v8H98V55Z" transform="translate(-2 -7)"/>
  </g>
</svg>
